<?xml version="1.0" encoding="UTF-8" standalone="no"?>
<!-- Created with Inkscape (http://www.inkscape.org/) -->

<svg
   width="150mm"
   height="90mm"
   viewBox="0 0 240 120"
   version="1.1"
   id="svg8"
   inkscape:version="1.3 (0e150ed, 2023-07-21)"
   sodipodi:docname="exmgraph1.svg"
   xmlns:inkscape="http://www.inkscape.org/namespaces/inkscape"
   xmlns:sodipodi="http://sodipodi.sourceforge.net/DTD/sodipodi-0.dtd"
   xmlns="http://www.w3.org/2000/svg"
   xmlns:svg="http://www.w3.org/2000/svg"
   xmlns:rdf="http://www.w3.org/1999/02/22-rdf-syntax-ns#"
   xmlns:cc="http://creativecommons.org/ns#"
   xmlns:dc="http://purl.org/dc/elements/1.1/">
  <sodipodi:namedview
     id="base"
     pagecolor="#ffffff"
     bordercolor="#666666"
     borderopacity="1.0"
     inkscape:pageopacity="0.0"
     inkscape:pageshadow="2"
     inkscape:zoom="0.99437388"
     inkscape:cx="284.6012"
     inkscape:cy="182.02409"
     inkscape:document-units="mm"
     inkscape:current-layer="layer1"
     showgrid="false"
     showborder="true"
     width="200mm"
     showguides="true"
     inkscape:guide-bbox="true"
     inkscape:window-width="2520"
     inkscape:window-height="995"
     inkscape:window-x="20"
     inkscape:window-y="65"
     inkscape:window-maximized="1"
     inkscape:showpageshadow="2"
     inkscape:pagecheckerboard="0"
     inkscape:deskcolor="#d1d1d1">
    <inkscape:grid
       type="xygrid"
       id="grid815"
       units="mm"
       spacingx="10"
       spacingy="10"
       empspacing="4"
       dotted="false"
       originx="0"
       originy="0"
       visible="false" />
  </sodipodi:namedview>
  <defs
     id="defs2" />
  <metadata
     id="metadata5">
    <rdf:RDF>
      <cc:Work
         rdf:about="">
        <dc:format>image/svg+xml</dc:format>
        <dc:type
           rdf:resource="http://purl.org/dc/dcmitype/StillImage" />
        <dc:title />
      </cc:Work>
    </rdf:RDF>
  </metadata>
  <g
     inkscape:label="Layer 1"
     inkscape:groupmode="layer"
     id="layer1"
     transform="translate(0, -177)">
    <path
       style="fill:#2b0000;fill-opacity:0.117647;stroke:#2b0000;stroke-width:0.416"
       d="m 114.9467,167.9801 c -0.42573,131.12438 -0.42573,131.12438 -0.42573,131.12438"
       id="path1" />
    <path
       style="fill:#2b0000;fill-opacity:0.117647;stroke:#2b0000;stroke-width:0.416"
       d="M 8.5145706,230.98792 C 210.30989,231.83938 210.30989,231.83938 210.30989,231.83938"
       id="path2" />
    <path
       style="fill:#2b0000;fill-opacity:0.117647;stroke:#2b0000;stroke-width:0.416"
       d="m 11.49467,231.41365 c 28.383694,0.53132 54.886394,4.75903 74.076766,25.96944 l 59.601994,-52.79034 c 0,0 14.47477,26.39517 63.00783,27.24663"
       id="path3"
       sodipodi:nodetypes="cccc" />
    <g
       inkscape:label=""
       transform="translate(142.54812,236.53099)"
       id="g1">
      <g
         fill="#000000"
         fill-opacity="1"
         id="g4"
         transform="matrix(0.47037,0,0,0.47037,-1.49931,-0.949913)">
        <g
           id="use3"
           transform="translate(7.461,8.5819998)">
          <path
             d="M 3.953125,0.03125 V -0.25 l -0.5,-0.03125 C 2.9375,-0.3125 2.84375,-0.421875 2.84375,-0.90625 V -6.515625 L 2.71875,-6.5625 c -0.625,0.328125 -1.296875,0.609375 -2.15625,0.90625 L 0.640625,-5.25 h 0.09375 c 0.40625,-0.1875 0.828125,-0.375 1.234375,-0.546875 0.0625,0 0.078125,0.078125 0.078125,0.296875 v 4.59375 c 0,0.484375 -0.09375,0.59375 -0.609375,0.625 L 0.90625,-0.25 V 0.03125 C 1.421875,0.015625 1.953125,0 2.46875,0 2.953125,0 3.453125,0.015625 3.953125,0.03125 Z m 0,0"
             id="path6" />
        </g>
      </g>
      <path
         fill="none"
         stroke-width="0.764"
         stroke-linecap="butt"
         stroke-linejoin="miter"
         stroke="#000000"
         stroke-opacity="1"
         stroke-miterlimit="10"
         d="M 0,8.335969 H 13.273437"
         id="path4"
         transform="scale(0.47037)" />
      <g
         fill="#000000"
         fill-opacity="1"
         id="g5"
         transform="matrix(0.47037,0,0,0.47037,-1.49931,-0.949913)">
        <g
           id="use4"
           transform="translate(3.188,12.609)">
          <path
             d="M 7.296875,-0.5625 H 6.71875 L 4.46875,7.234375 2.5,3.078125 0.59375,4.109375 0.71875,4.3125 1.78125,3.90625 4.390625,9.390625 Z m 0,0"
             id="path7" />
        </g>
      </g>
      <path
         fill="none"
         stroke-width="0.553"
         stroke-linecap="butt"
         stroke-linejoin="miter"
         stroke="#000000"
         stroke-opacity="1"
         stroke-miterlimit="10"
         d="M 6.9960937,10.312531 H 13.273438"
         id="path5"
         transform="scale(0.47037)" />
      <g
         fill="#000000"
         fill-opacity="1"
         id="g6"
         transform="matrix(0.47037,0,0,0.47037,-1.49931,-0.949913)">
        <g
           id="use5"
           transform="translate(10.184,19.826)">
          <path
             d="m 1.984375,-0.171875 c -0.015625,-0.375 -0.03125,-0.65625 -0.03125,-0.921875 0,-0.6875 0.03125,-1.53125 0.0625,-2.203125 0.34375,-0.28125 0.78125,-0.578125 1.21875,-0.578125 0.671875,0 0.84375,0.578125 0.84375,1.515625 l -0.046875,1.625 c 0,0.453125 0.171875,0.828125 0.6875,0.828125 0.453125,0 1.046875,-0.421875 1.484375,-0.84375 L 6.109375,-0.9375 H 6 C 5.75,-0.765625 5.453125,-0.5625 5.234375,-0.5625 4.71875,-0.5625 4.78125,-1 4.78125,-2.421875 c 0,-0.609375 0,-1.515625 -0.1875,-1.734375 C 4.421875,-4.375 4.140625,-4.4375 3.859375,-4.4375 c -0.59375,0 -1.25,0.359375 -1.78125,0.6875 L 2,-3.8125 C 1.953125,-4.15625 1.796875,-4.453125 1.328125,-4.453125 c -0.359375,0 -0.890625,0.390625 -1.28125,0.671875 l 0.15625,0.203125 C 0.484375,-3.75 0.71875,-3.90625 0.921875,-3.90625 c 0.3125,0 0.34375,0.453125 0.34375,1.09375 0,0.765625 -0.0625,2.328125 -0.078125,2.796875 L 1.328125,0.0625 Z m 0,0"
             id="path8" />
        </g>
      </g>
    </g>
    <g
       inkscape:label=""
       transform="translate(79.114574,217.3732)"
       id="g14">
      <g
         fill="#000000"
         fill-opacity="1"
         id="g10"
         transform="matrix(0.47037,0,0,0.47037,-1.33432,-0.949913)">
        <g
           id="g9"
           transform="translate(1.993,13.685)">
          <path
             d="M 7.828125,-3.125 V -3.890625 H 0.84375 V -3.125 Z m 0,0"
             id="path9" />
        </g>
      </g>
      <g
         fill="#000000"
         fill-opacity="1"
         id="g12"
         transform="matrix(0.47037,0,0,0.47037,-1.33432,-0.949913)">
        <g
           id="g11"
           transform="translate(16.125999,8.5819998)">
          <path
             d="M 3.953125,0.03125 V -0.25 l -0.5,-0.03125 C 2.9375,-0.3125 2.84375,-0.421875 2.84375,-0.90625 V -6.515625 L 2.71875,-6.5625 c -0.625,0.328125 -1.296875,0.609375 -2.15625,0.90625 L 0.640625,-5.25 h 0.09375 c 0.40625,-0.1875 0.828125,-0.375 1.234375,-0.546875 0.0625,0 0.078125,0.078125 0.078125,0.296875 v 4.59375 c 0,0.484375 -0.09375,0.59375 -0.609375,0.625 L 0.90625,-0.25 V 0.03125 C 1.421875,0.015625 1.953125,0 2.46875,0 2.953125,0 3.453125,0.015625 3.953125,0.03125 Z m 0,0"
             id="path10" />
        </g>
      </g>
      <path
         fill="none"
         stroke-width="0.764"
         stroke-linecap="butt"
         stroke-linejoin="miter"
         stroke="#000000"
         stroke-opacity="1"
         stroke-miterlimit="10"
         d="M 9.0148125,8.335969 H 22.292156"
         id="path12"
         transform="scale(0.47037)" />
      <g
         fill="#000000"
         fill-opacity="1"
         id="g7"
         transform="matrix(0.47037,0,0,0.47037,-1.33432,-0.949913)">
        <g
           id="use6"
           transform="translate(11.853,12.609)">
          <path
             d="M 7.296875,-0.5625 H 6.71875 L 4.46875,7.234375 2.5,3.078125 0.59375,4.109375 0.71875,4.3125 1.78125,3.90625 4.390625,9.390625 Z m 0,0"
             id="path13" />
        </g>
      </g>
      <path
         fill="none"
         stroke-width="0.553"
         stroke-linecap="butt"
         stroke-linejoin="miter"
         stroke="#000000"
         stroke-opacity="1"
         stroke-miterlimit="10"
         d="m 16.010906,10.312531 h 6.28125"
         id="path14"
         transform="scale(0.47037)" />
      <g
         fill="#000000"
         fill-opacity="1"
         id="g8"
         transform="matrix(0.47037,0,0,0.47037,-1.33432,-0.949913)">
        <g
           id="use7"
           transform="translate(18.849001,19.826)">
          <path
             d="m 1.984375,-0.171875 c -0.015625,-0.375 -0.03125,-0.65625 -0.03125,-0.921875 0,-0.6875 0.03125,-1.53125 0.0625,-2.203125 0.34375,-0.28125 0.78125,-0.578125 1.21875,-0.578125 0.671875,0 0.84375,0.578125 0.84375,1.515625 l -0.046875,1.625 c 0,0.453125 0.171875,0.828125 0.6875,0.828125 0.453125,0 1.046875,-0.421875 1.484375,-0.84375 L 6.109375,-0.9375 H 6 C 5.75,-0.765625 5.453125,-0.5625 5.234375,-0.5625 4.71875,-0.5625 4.78125,-1 4.78125,-2.421875 c 0,-0.609375 0,-1.515625 -0.1875,-1.734375 C 4.421875,-4.375 4.140625,-4.4375 3.859375,-4.4375 c -0.59375,0 -1.25,0.359375 -1.78125,0.6875 L 2,-3.8125 C 1.953125,-4.15625 1.796875,-4.453125 1.328125,-4.453125 c -0.359375,0 -0.890625,0.390625 -1.28125,0.671875 l 0.15625,0.203125 C 0.484375,-3.75 0.71875,-3.90625 0.921875,-3.90625 c 0.3125,0 0.34375,0.453125 0.34375,1.09375 0,0.765625 -0.0625,2.328125 -0.078125,2.796875 L 1.328125,0.0625 Z m 0,0"
             id="path11" />
        </g>
      </g>
    </g>
    <g
       inkscape:label=""
       transform="translate(203.4273,236.53099)"
       id="g15">
      <g
         fill="#000000"
         fill-opacity="1"
         id="g2"
         transform="matrix(0.47037,0,0,0.47037,-0.952147,-0.903758)">
        <g
           id="use1"
           transform="translate(1.993,7.9369998)">
          <path
             d="m 5.46875,-5.984375 c -0.03125,-0.03125 -0.046875,-0.03125 -0.078125,-0.03125 -0.046875,0 -0.0625,0 -0.078125,0.03125 -0.578125,0.65625 -1.328125,1.5625 -1.796875,2.1875 L 3.4375,-3.8125 C 3.0625,-4.53125 2.53125,-5.46875 2.25,-5.765625 c -0.171875,-0.1875 -0.46875,-0.25 -0.703125,-0.25 -0.421875,0 -1.0625,0.484375 -1.515625,0.828125 l 0.171875,0.234375 c 0.234375,-0.15625 0.5625,-0.3125 0.828125,-0.3125 0.640625,0 1.265625,1.375 1.75,2.375 -0.625,0.828125 -1.28125,1.71875 -1.828125,2.625 v 0.09375 L 1.3125,0.15625 1.515625,0.109375 c 0.390625,-1 0.90625,-1.8125 1.40625,-2.578125 h 0.09375 c 0.859375,1.671875 1.296875,2.625 1.953125,2.625 0.546875,0 1.203125,-0.71875 1.65625,-1.21875 l -0.09375,-0.25 H 6.421875 c -0.25,0.21875 -0.609375,0.5 -0.921875,0.5 -0.5625,0 -1.328125,-1.375 -1.859375,-2.546875 0.671875,-0.78125 1.5,-1.625 2.234375,-2.125 C 5.890625,-5.5 5.90625,-5.515625 5.90625,-5.5625 c 0,0 -0.03125,-0.03125 -0.03125,-0.046875 z m 0,0"
             id="path15" />
        </g>
      </g>
    </g>
    <g
       inkscape:label=""
       transform="translate(119.55878,170.11734)"
       id="g18">
      <g
         fill="#000000"
         fill-opacity="1"
         id="g17"
         transform="matrix(0.47037,0,0,0.47037,-0.834555,-0.88218)">
        <g
           id="g16"
           transform="translate(1.993,7.9380002)">
          <path
             d="m 1.25,2.359375 c 0.359375,0.359375 1.046875,0.65625 1.65625,0.65625 1.375,0 2.71875,-0.703125 3.1875,-2.375 0.28125,-1.234375 0.078125,-3.984375 0.265625,-6.625 L 6.203125,-6.03125 5.1875,-5.546875 c 0.0625,0.890625 0.09375,1.828125 0.09375,2.765625 0,0.46875 -0.015625,0.921875 -0.015625,1.375 -0.484375,0.296875 -1.125,0.6875 -1.75,0.6875 -0.296875,0 -0.609375,-0.09375 -0.8125,-0.34375 C 2.5,-1.328125 2.390625,-1.71875 2.34375,-2.921875 c 0,-0.75 0.046875,-1.515625 0.046875,-2.234375 0,-0.484375 -0.25,-0.90625 -0.8125,-0.90625 -0.59375,0 -1.609375,0.734375 -1.796875,0.875 l 0.140625,0.234375 C 0.21875,-5.109375 0.625,-5.3125 0.84375,-5.3125 c 0.53125,0 0.59375,0.578125 0.59375,1.5 0,0.65625 -0.046875,1.203125 -0.046875,1.78125 0,0.859375 0.09375,2.140625 1.34375,2.140625 0.828125,0 1.703125,-0.546875 2.4375,-1 L 5.25,-0.828125 c -0.015625,0.40625 -0.03125,0.84375 -0.109375,1.265625 -0.125,0.734375 -0.4375,2.046875 -1.828125,2.046875 -0.578125,0 -1.078125,-0.5 -1.34375,-1 H 1.796875 l -0.5625,0.734375 z m 0,0"
             id="path16" />
        </g>
      </g>
    </g>
  </g>
</svg>
