<?xml version="1.0" encoding="UTF-8" standalone="no"?>
<!-- Created with Inkscape (http://www.inkscape.org/) -->

<svg
   width="150mm"
   height="90mm"
   viewBox="0 0 240 120"
   version="1.1"
   id="svg8"
   inkscape:version="1.3 (0e150ed, 2023-07-21)"
   sodipodi:docname="integralpic.svg"
   xmlns:inkscape="http://www.inkscape.org/namespaces/inkscape"
   xmlns:sodipodi="http://sodipodi.sourceforge.net/DTD/sodipodi-0.dtd"
   xmlns="http://www.w3.org/2000/svg"
   xmlns:svg="http://www.w3.org/2000/svg"
   xmlns:rdf="http://www.w3.org/1999/02/22-rdf-syntax-ns#"
   xmlns:cc="http://creativecommons.org/ns#"
   xmlns:dc="http://purl.org/dc/elements/1.1/">
  <sodipodi:namedview
     id="base"
     pagecolor="#ffffff"
     bordercolor="#666666"
     borderopacity="1.0"
     inkscape:pageopacity="0.0"
     inkscape:pageshadow="2"
     inkscape:zoom="0.99437388"
     inkscape:cx="284.6012"
     inkscape:cy="182.02409"
     inkscape:document-units="mm"
     inkscape:current-layer="layer1"
     showgrid="false"
     showborder="true"
     width="200mm"
     showguides="true"
     inkscape:guide-bbox="true"
     inkscape:window-width="2520"
     inkscape:window-height="995"
     inkscape:window-x="20"
     inkscape:window-y="65"
     inkscape:window-maximized="1"
     inkscape:showpageshadow="2"
     inkscape:pagecheckerboard="0"
     inkscape:deskcolor="#d1d1d1">
    <inkscape:grid
       type="xygrid"
       id="grid815"
       units="mm"
       spacingx="10"
       spacingy="10"
       empspacing="4"
       dotted="false"
       originx="0"
       originy="0"
       visible="false" />
  </sodipodi:namedview>
  <defs
     id="defs2" />
  <metadata
     id="metadata5">
    <rdf:RDF>
      <cc:Work
         rdf:about="">
        <dc:format>image/svg+xml</dc:format>
        <dc:type
           rdf:resource="http://purl.org/dc/dcmitype/StillImage" />
        <dc:title />
      </cc:Work>
    </rdf:RDF>
  </metadata>
  <g
     inkscape:label="Layer 1"
     inkscape:groupmode="layer"
     id="layer1"
     transform="translate(0, -177)">
    <path
       style="fill:#2b0000;fill-opacity:0.117647;stroke:#2b0000;stroke-width:0.416"
       d="m 120.48117,169.25729 1.27719,126.8671"
       id="path1" />
    <path
       style="fill:#2b0000;fill-opacity:0.117647;stroke:#2b0000;stroke-width:0.416"
       d="m 17.45487,225.87918 201.3696,-1.27719"
       id="path2" />
    <path
       style="fill:#2b0000;fill-opacity:0.117647;stroke:#2b0000;stroke-width:0.416"
       d="m 28.098083,171.81166 c 0,0 42.998583,-8.9403 92.808817,53.21607 49.81024,62.15636 97.06611,57.89907 97.06611,57.89907 l 0.42573,-58.3248 -190.726386,1.27718 z"
       id="path3"
       sodipodi:nodetypes="cscccc" />
    <g
       inkscape:label=""
       transform="translate(125.09325,172.67171)"
       id="g4">
      <g
         fill="#000000"
         fill-opacity="1"
         id="g2"
         transform="matrix(0.47037,0,0,0.47037,-0.834555,-0.88218)">
        <g
           id="use1"
           transform="translate(1.993,7.9380002)">
          <path
             d="m 1.25,2.359375 c 0.359375,0.359375 1.046875,0.65625 1.65625,0.65625 1.375,0 2.71875,-0.703125 3.1875,-2.375 0.28125,-1.234375 0.078125,-3.984375 0.265625,-6.625 L 6.203125,-6.03125 5.1875,-5.546875 c 0.0625,0.890625 0.09375,1.828125 0.09375,2.765625 0,0.46875 -0.015625,0.921875 -0.015625,1.375 -0.484375,0.296875 -1.125,0.6875 -1.75,0.6875 -0.296875,0 -0.609375,-0.09375 -0.8125,-0.34375 C 2.5,-1.328125 2.390625,-1.71875 2.34375,-2.921875 c 0,-0.75 0.046875,-1.515625 0.046875,-2.234375 0,-0.484375 -0.25,-0.90625 -0.8125,-0.90625 -0.59375,0 -1.609375,0.734375 -1.796875,0.875 l 0.140625,0.234375 C 0.21875,-5.109375 0.625,-5.3125 0.84375,-5.3125 c 0.53125,0 0.59375,0.578125 0.59375,1.5 0,0.65625 -0.046875,1.203125 -0.046875,1.78125 0,0.859375 0.09375,2.140625 1.34375,2.140625 0.828125,0 1.703125,-0.546875 2.4375,-1 L 5.25,-0.828125 c -0.015625,0.40625 -0.03125,0.84375 -0.109375,1.265625 -0.125,0.734375 -0.4375,2.046875 -1.828125,2.046875 -0.578125,0 -1.078125,-0.5 -1.34375,-1 H 1.796875 l -0.5625,0.734375 z m 0,0"
             id="path4" />
        </g>
      </g>
    </g>
    <g
       inkscape:label=""
       transform="translate(216.62489,215.67029)"
       id="g7">
      <g
         fill="#000000"
         fill-opacity="1"
         id="g6"
         transform="matrix(0.47037,0,0,0.47037,-0.952147,-0.903758)">
        <g
           id="g5"
           transform="translate(1.993,7.9369998)">
          <path
             d="m 5.46875,-5.984375 c -0.03125,-0.03125 -0.046875,-0.03125 -0.078125,-0.03125 -0.046875,0 -0.0625,0 -0.078125,0.03125 -0.578125,0.65625 -1.328125,1.5625 -1.796875,2.1875 L 3.4375,-3.8125 C 3.0625,-4.53125 2.53125,-5.46875 2.25,-5.765625 c -0.171875,-0.1875 -0.46875,-0.25 -0.703125,-0.25 -0.421875,0 -1.0625,0.484375 -1.515625,0.828125 l 0.171875,0.234375 c 0.234375,-0.15625 0.5625,-0.3125 0.828125,-0.3125 0.640625,0 1.265625,1.375 1.75,2.375 -0.625,0.828125 -1.28125,1.71875 -1.828125,2.625 v 0.09375 L 1.3125,0.15625 1.515625,0.109375 c 0.390625,-1 0.90625,-1.8125 1.40625,-2.578125 h 0.09375 c 0.859375,1.671875 1.296875,2.625 1.953125,2.625 0.546875,0 1.203125,-0.71875 1.65625,-1.21875 l -0.09375,-0.25 H 6.421875 c -0.25,0.21875 -0.609375,0.5 -0.921875,0.5 -0.5625,0 -1.328125,-1.375 -1.859375,-2.546875 0.671875,-0.78125 1.5,-1.625 2.234375,-2.125 C 5.890625,-5.5 5.90625,-5.515625 5.90625,-5.5625 c 0,0 -0.03125,-0.03125 -0.03125,-0.046875 z m 0,0"
             id="path5" />
        </g>
      </g>
    </g>
    <g
       inkscape:label=""
       transform="translate(25.898507,230.99652)"
       id="g10">
      <g
         fill="#000000"
         fill-opacity="1"
         id="g9"
         transform="matrix(0.47037,0,0,0.47037,-1.47396,-0.896408)">
        <g
           id="g8"
           transform="translate(1.993,7.9369998)">
          <path
             d="M 5.609375,-5.578125 C 5.1875,-5.875 4.640625,-6.03125 4.21875,-6.03125 c -2.203125,0 -3.078125,1.8125 -3.078125,3.640625 0,1.15625 0.46875,2.546875 1.90625,2.546875 0.75,0 1.46875,-0.40625 2.109375,-0.8125 l 0.1875,0.046875 c 0.078125,0.4375 0.265625,0.765625 0.75,0.765625 0.40625,0 1.109375,-0.4375 1.625,-0.75 L 7.625,-0.90625 c -0.265625,0.109375 -0.65625,0.234375 -0.84375,0.234375 -0.6875,0 -0.5,-1.625 -0.5,-2.421875 0,-0.953125 0.03125,-1.875 0.078125,-2.828125 l -0.0625,-0.0625 z m -0.28125,4.296875 c -0.390625,0.296875 -0.875,0.578125 -1.375,0.578125 -0.484375,0 -1.015625,-0.09375 -1.28125,-0.53125 C 2.375,-1.6875 2.296875,-2.234375 2.3125,-2.78125 2.328125,-4.09375 2.703125,-4.8125 3,-5.09375 c 0.34375,-0.328125 0.765625,-0.484375 1.234375,-0.484375 0.328125,0 0.65625,0.171875 0.875,0.421875 0.21875,0.21875 0.21875,0.5625 0.21875,0.890625 z m 0,0"
             id="path7" />
        </g>
      </g>
    </g>
    <g
       inkscape:label=""
       transform="translate(217.47635,289.32132)"
       id="g13">
      <g
         fill="#000000"
         fill-opacity="1"
         id="g12"
         transform="matrix(0.47037,0,0,0.47037,-1.09914,-0.979135)">
        <g
           id="g11"
           transform="translate(1.993,10.941)">
          <path
             d="m 0.34375,-8.5625 v 0.265625 c 1.125,0.171875 1.21875,0.078125 1.21875,0.53125 v 6.171875 c 0,1.4375 0.859375,1.71875 1.515625,1.71875 1.484375,0 3,-1.03125 3.453125,-2.421875 0.171875,-0.546875 0.25,-1.125 0.25,-1.6875 0,-1.09375 -0.625,-2.078125 -1.828125,-2.078125 C 4.0625,-6.0625 3.3125,-5.625 2.625,-5.109375 l -0.109375,-0.0625 c 0,-0.140625 0,-0.28125 0,-0.421875 0,-1.0625 0.078125,-2.109375 0.171875,-3.171875 L 2.609375,-8.859375 0.421875,-8.625 Z M 2.5625,-4.5 c 0.5,-0.4375 1.09375,-0.765625 1.78125,-0.765625 0.484375,0 0.796875,0.296875 0.96875,0.5625 0.171875,0.265625 0.390625,0.8125 0.390625,1.765625 0,1.1875 -0.53125,2.4375 -1.90625,2.4375 -1.140625,0 -1.28125,-1 -1.28125,-2.46875 0,-0.5 0.015625,-1.078125 0.046875,-1.53125 z m 0,0"
             id="path10" />
        </g>
      </g>
    </g>
  </g>
</svg>
