<?xml version="1.0" encoding="UTF-8" standalone="no"?>
<!-- Created with Inkscape (http://www.inkscape.org/) -->

<svg
   width="150mm"
   height="90mm"
   viewBox="0 0 240 120"
   version="1.1"
   id="svg8"
   inkscape:version="1.3.2 (091e20e, 2023-11-25)"
   sodipodi:docname="gadget.svg"
   xmlns:inkscape="http://www.inkscape.org/namespaces/inkscape"
   xmlns:sodipodi="http://sodipodi.sourceforge.net/DTD/sodipodi-0.dtd"
   xmlns:xlink="http://www.w3.org/1999/xlink"
   xmlns="http://www.w3.org/2000/svg"
   xmlns:svg="http://www.w3.org/2000/svg"
   xmlns:rdf="http://www.w3.org/1999/02/22-rdf-syntax-ns#"
   xmlns:cc="http://creativecommons.org/ns#"
   xmlns:dc="http://purl.org/dc/elements/1.1/"
   xmlns:ns10="http://www.iki.fi/pav/software/textext/">
  <sodipodi:namedview
     id="base"
     pagecolor="#ffffff"
     bordercolor="#666666"
     borderopacity="1.0"
     inkscape:pageopacity="0.0"
     inkscape:pageshadow="2"
     inkscape:zoom="1.6999036"
     inkscape:cx="356.78494"
     inkscape:cy="145.00822"
     inkscape:document-units="mm"
     inkscape:current-layer="layer1"
     showgrid="false"
     showborder="true"
     width="200mm"
     showguides="true"
     inkscape:guide-bbox="true"
     inkscape:window-width="2520"
     inkscape:window-height="995"
     inkscape:window-x="20"
     inkscape:window-y="65"
     inkscape:window-maximized="1"
     inkscape:showpageshadow="2"
     inkscape:pagecheckerboard="0"
     inkscape:deskcolor="#d1d1d1">
    <inkscape:grid
       type="xygrid"
       id="grid815"
       units="mm"
       spacingx="10"
       spacingy="10"
       empspacing="4"
       dotted="false"
       originx="0"
       originy="0"
       visible="false" />
  </sodipodi:namedview>
  <defs
     id="defs2">
    <linearGradient
       id="linearGradient8"
       inkscape:collect="always">
      <stop
         style="stop-color:#fd0d0d;stop-opacity:0.98113209;"
         offset="0"
         id="stop8" />
      <stop
         style="stop-color:#0490fd;stop-opacity:1;"
         offset="1"
         id="stop9" />
    </linearGradient>
    <linearGradient
       inkscape:collect="always"
       xlink:href="#linearGradient8"
       id="linearGradient9"
       x1="200.40108"
       y1="-243.13632"
       x2="224.44346"
       y2="-243.13632"
       gradientUnits="userSpaceOnUse" />
    <linearGradient
       inkscape:collect="always"
       xlink:href="#linearGradient8"
       id="linearGradient10"
       gradientUnits="userSpaceOnUse"
       x1="200.40108"
       y1="-243.13632"
       x2="224.44346"
       y2="-243.13632"
       gradientTransform="translate(-0.04025809,51.174783)" />
    <linearGradient
       inkscape:collect="always"
       xlink:href="#linearGradient8"
       id="linearGradient11"
       gradientUnits="userSpaceOnUse"
       x1="200.40108"
       y1="-243.13632"
       x2="224.44346"
       y2="-243.13632"
       gradientTransform="translate(0.25891824,-27.864875)" />
  </defs>
  <metadata
     id="metadata5">
    <rdf:RDF>
      <cc:Work
         rdf:about="">
        <dc:format>image/svg+xml</dc:format>
        <dc:type
           rdf:resource="http://purl.org/dc/dcmitype/StillImage" />
        <dc:title />
      </cc:Work>
    </rdf:RDF>
  </metadata>
  <g
     inkscape:label="Layer 1"
     inkscape:groupmode="layer"
     id="layer1"
     transform="translate(0, -177)">
    <circle
       style="fill:#00bcff;stroke:#000000;stroke-width:1.6;stroke-miterlimit:2;fill-opacity:1"
       id="path1"
       cx="28.827282"
       cy="244.75421"
       r="11.22119" />
    <circle
       style="fill:none;stroke:#000000;stroke-width:1.6;stroke-miterlimit:2"
       id="path1-2"
       cx="72.887909"
       cy="219.15521"
       r="11.22119" />
    <circle
       style="fill:none;stroke:#000000;stroke-width:1.6;stroke-miterlimit:2"
       id="path1-2-5"
       cx="72.822823"
       cy="-270.20767"
       r="11.22119"
       transform="scale(1,-1)" />
    <circle
       style="fill:none;stroke:#000000;stroke-width:1.6;stroke-miterlimit:2"
       id="path1-7"
       cx="120.7373"
       cy="218.04233"
       r="11.22119" />
    <circle
       style="fill:none;stroke:#000000;stroke-width:1.6;stroke-miterlimit:2"
       id="path1-2-3"
       cx="164.79791"
       cy="192.44333"
       r="11.22119" />
    <circle
       style="fill:none;stroke:#000000;stroke-width:1.6;stroke-miterlimit:2"
       id="path1-2-5-7"
       cx="164.73282"
       cy="-243.49564"
       r="11.22119"
       transform="scale(1,-1)" />
    <circle
       style="fill:url(#linearGradient10);fill-opacity:1;stroke:#000000;stroke-width:1.6;stroke-miterlimit:2"
       id="path1-2-5-7-9-0"
       cx="212.38202"
       cy="-191.96155"
       r="11.22119"
       transform="scale(1,-1)" />
    <circle
       style="fill:url(#linearGradient9);stroke:#000000;stroke-width:1.6;stroke-miterlimit:2;fill-opacity:1"
       id="path1-2-5-7-9"
       cx="212.42227"
       cy="-243.13632"
       r="11.22119"
       transform="scale(1,-1)" />
    <path
       style="fill:none;stroke:#000000;stroke-width:0.423333px;stroke-linecap:butt;stroke-linejoin:miter;stroke-opacity:1"
       d="M 37.585454,238.40396 61.876709,223.47604"
       id="path2" />
    <path
       style="fill:none;stroke:#000000;stroke-width:0.423333px;stroke-linecap:butt;stroke-linejoin:miter;stroke-opacity:1"
       d="M 109.37771,218.38281 H 83.619399"
       id="path3" />
    <path
       style="fill:none;stroke:#000000;stroke-width:0.423333px;stroke-linecap:butt;stroke-linejoin:miter;stroke-opacity:1"
       d="m 130.15399,212.98654 24.29126,-14.92792"
       id="path2-4" />
    <path
       style="fill:none;stroke:#000000;stroke-width:0.423333px;stroke-linecap:butt;stroke-linejoin:miter;stroke-opacity:1"
       d="m 38.380425,251.42141 24.29125,14.92792"
       id="path2-9" />
    <path
       style="fill:none;stroke:#000000;stroke-width:0.423333px;stroke-linecap:butt;stroke-linejoin:miter;stroke-opacity:1"
       d="m 130.11842,224.6925 24.29125,14.92792"
       id="path2-9-7" />
    <path
       style="fill:none;stroke:#000000;stroke-width:0.423333px;stroke-linecap:butt;stroke-linejoin:miter;stroke-opacity:1"
       d="M 201.57985,192.10654 H 175.82151"
       id="path3-5" />
    <path
       style="fill:none;stroke:#000000;stroke-width:0.423333px;stroke-linecap:butt;stroke-linejoin:miter;stroke-opacity:1"
       d="M 201.18693,243.58405 H 175.42859"
       id="path3-54" />
    <path
       style="fill:none;stroke:#000000;stroke-width:0.423333px;stroke-linecap:butt;stroke-linejoin:miter;stroke-opacity:1"
       d="M 83.403275,270.94575 H 201.1775"
       id="path4" />
    <g
       transform="matrix(0.73098304,0,0,0.73098304,8.8372787,224.67369)"
       ns10:version="1.9.0"
       ns10:texconverter="pdflatex"
       ns10:pdfconverter="inkscape"
       ns10:text="($a_1 \\lor a_2 \\lor a_3$)"
       ns10:preamble="/Users/trustinnguyen/Library/Application Support/org.inkscape.Inkscape/config/inkscape/extensions/textext/default_packages.tex"
       ns10:scale="1.0"
       ns10:alignment="middle center"
       ns10:stroke-to-path="0"
       ns10:inkscapeversion="0.92.4"
       id="g2604"
       ns10:jacobian_sqrt="1.33333">
      <defs
         id="id-ed23295a-c373-456d-bf12-3bc9b18b7b8f">
        <g
           id="id-880e5078-08f8-48ec-aa20-eee4a275cfdd">
          <g
             id="id-18f42751-fd8e-4072-b695-f0c5348d3c0d">
            <path
               d="m 3.296875,2.390625 c 0,-0.03125 0,-0.046875 -0.171875,-0.21875 C 1.890625,0.921875 1.5625,-0.96875 1.5625,-2.5 c 0,-1.734375 0.375,-3.46875 1.609375,-4.703125 0.125,-0.125 0.125,-0.140625 0.125,-0.171875 0,-0.078125 -0.03125,-0.109375 -0.09375,-0.109375 -0.109375,0 -1,0.6875 -1.59375,1.953125 -0.5,1.09375 -0.625,2.203125 -0.625,3.03125 0,0.78125 0.109375,1.984375 0.65625,3.125 C 2.25,1.84375 3.09375,2.5 3.203125,2.5 c 0.0625,0 0.09375,-0.03125 0.09375,-0.109375 z m 0,0"
               id="id-d66dfc2f-8a63-40ce-bb5b-6eff77f1fe18" />
          </g>
          <g
             id="id-f91d4843-910c-450f-a63a-71aba83eedfe">
            <path
               d="m 2.875,-2.5 c 0,-0.765625 -0.109375,-1.96875 -0.65625,-3.109375 -0.59375,-1.21875 -1.453125,-1.875 -1.546875,-1.875 -0.0625,0 -0.109375,0.046875 -0.109375,0.109375 0,0.03125 0,0.046875 0.1875,0.234375 0.984375,0.984375 1.546875,2.5625 1.546875,4.640625 0,1.71875 -0.359375,3.46875 -1.59375,4.71875 C 0.5625,2.34375 0.5625,2.359375 0.5625,2.390625 0.5625,2.453125 0.609375,2.5 0.671875,2.5 0.765625,2.5 1.671875,1.8125 2.25,0.546875 2.765625,-0.546875 2.875,-1.65625 2.875,-2.5 Z m 0,0"
               id="id-a448279f-adf4-4279-b67f-702060563305" />
          </g>
          <g
             id="id-749c2747-1bc7-4d64-91d9-04dfe601feb8">
            <path
               d="M 3.71875,-3.765625 C 3.53125,-4.140625 3.25,-4.40625 2.796875,-4.40625 c -1.15625,0 -2.390625,1.46875 -2.390625,2.921875 0,0.9375 0.546875,1.59375 1.3125,1.59375 0.203125,0 0.703125,-0.046875 1.296875,-0.75 0.078125,0.421875 0.4375,0.75 0.90625,0.75 0.359375,0 0.578125,-0.234375 0.75,-0.546875 0.15625,-0.359375 0.296875,-0.96875 0.296875,-0.984375 0,-0.109375 -0.09375,-0.109375 -0.125,-0.109375 -0.09375,0 -0.109375,0.046875 -0.140625,0.1875 -0.171875,0.640625 -0.34375,1.234375 -0.75,1.234375 -0.28125,0 -0.296875,-0.265625 -0.296875,-0.453125 0,-0.21875 0.015625,-0.3125 0.125,-0.75 C 3.890625,-1.71875 3.90625,-1.828125 4,-2.203125 L 4.359375,-3.59375 c 0.0625,-0.28125 0.0625,-0.296875 0.0625,-0.34375 0,-0.171875 -0.109375,-0.265625 -0.28125,-0.265625 -0.25,0 -0.390625,0.21875 -0.421875,0.4375 z M 3.078125,-1.1875 C 3.015625,-1 3.015625,-0.984375 2.875,-0.8125 2.4375,-0.265625 2.03125,-0.109375 1.75,-0.109375 c -0.5,0 -0.640625,-0.546875 -0.640625,-0.9375 0,-0.5 0.3125,-1.71875 0.546875,-2.1875 0.3125,-0.578125 0.75,-0.953125 1.15625,-0.953125 0.640625,0 0.78125,0.8125 0.78125,0.875 0,0.0625 -0.015625,0.125 -0.03125,0.171875 z m 0,0"
               id="id-2779aba9-1555-4852-a2a8-47bbd55d40af" />
          </g>
          <g
             id="id-6afadac4-1178-4a56-a252-5532d4c87128">
            <path
               d="m 2.328125,-4.4375 c 0,-0.1875 0,-0.1875 -0.203125,-0.1875 -0.453125,0.4375 -1.078125,0.4375 -1.359375,0.4375 v 0.25 c 0.15625,0 0.625,0 1,-0.1875 v 3.546875 c 0,0.234375 0,0.328125 -0.6875,0.328125 H 0.8125 V 0 c 0.125,0 0.984375,-0.03125 1.234375,-0.03125 0.21875,0 1.09375,0.03125 1.25,0.03125 V -0.25 H 3.03125 c -0.703125,0 -0.703125,-0.09375 -0.703125,-0.328125 z m 0,0"
               id="id-61d870d3-ceca-43f5-9037-700c604b7741" />
          </g>
          <g
             id="id-e39dd5b0-3ed1-439c-8c51-b19e90131bdf">
            <path
               d="M 3.515625,-1.265625 H 3.28125 c -0.015625,0.15625 -0.09375,0.5625 -0.1875,0.625 C 3.046875,-0.59375 2.515625,-0.59375 2.40625,-0.59375 H 1.125 c 0.734375,-0.640625 0.984375,-0.84375 1.390625,-1.171875 0.515625,-0.40625 1,-0.84375 1,-1.5 0,-0.84375 -0.734375,-1.359375 -1.625,-1.359375 -0.859375,0 -1.453125,0.609375 -1.453125,1.25 0,0.34375 0.296875,0.390625 0.375,0.390625 0.15625,0 0.359375,-0.125 0.359375,-0.375 0,-0.125 -0.046875,-0.375 -0.40625,-0.375 C 0.984375,-4.21875 1.453125,-4.375 1.78125,-4.375 c 0.703125,0 1.0625,0.546875 1.0625,1.109375 0,0.609375 -0.4375,1.078125 -0.65625,1.328125 L 0.515625,-0.265625 C 0.4375,-0.203125 0.4375,-0.1875 0.4375,0 h 2.875 z m 0,0"
               id="id-cf0de358-69d4-4daa-be4b-eabb24f6b548" />
          </g>
          <g
             id="id-50963a7f-a1d5-4861-a660-7f9ca7429d6d">
            <path
               d="m 1.90625,-2.328125 c 0.546875,0 0.9375,0.375 0.9375,1.125 0,0.859375 -0.515625,1.125 -0.90625,1.125 -0.28125,0 -0.90625,-0.078125 -1.1875,-0.5 0.328125,0 0.40625,-0.234375 0.40625,-0.390625 0,-0.21875 -0.171875,-0.375 -0.390625,-0.375 -0.1875,0 -0.390625,0.125 -0.390625,0.40625 0,0.65625 0.71875,1.078125 1.5625,1.078125 0.96875,0 1.640625,-0.65625 1.640625,-1.34375 0,-0.546875 -0.4375,-1.09375 -1.203125,-1.25 0.71875,-0.265625 0.984375,-0.78125 0.984375,-1.21875 0,-0.546875 -0.625,-0.953125 -1.40625,-0.953125 -0.765625,0 -1.359375,0.375 -1.359375,0.9375 0,0.234375 0.15625,0.359375 0.359375,0.359375 0.21875,0 0.359375,-0.15625 0.359375,-0.34375 0,-0.203125 -0.140625,-0.359375 -0.359375,-0.375 0.25,-0.296875 0.71875,-0.375 0.984375,-0.375 0.3125,0 0.75,0.15625 0.75,0.75 0,0.296875 -0.09375,0.625 -0.28125,0.828125 -0.21875,0.265625 -0.421875,0.28125 -0.765625,0.3125 -0.171875,0.015625 -0.1875,0.015625 -0.21875,0.015625 -0.015625,0 -0.078125,0.015625 -0.078125,0.09375 0,0.09375 0.0625,0.09375 0.1875,0.09375 z m 0,0"
               id="id-a54b3ad7-f8c0-41a4-af01-52f877ab89ea" />
          </g>
          <g
             id="id-4fc8cd5e-35ef-4ecf-bd70-608a556a559d">
            <path
               d="M 6.015625,-5.5625 C 6.078125,-5.6875 6.09375,-5.71875 6.09375,-5.765625 6.09375,-5.875 6,-5.96875 5.890625,-5.96875 c -0.09375,0 -0.15625,0.078125 -0.234375,0.234375 L 3.3125,-0.46875 0.984375,-5.75 C 0.890625,-5.9375 0.8125,-5.96875 0.75,-5.96875 c -0.109375,0 -0.203125,0.09375 -0.203125,0.203125 0,0.03125 0,0.046875 0.0625,0.15625 l 2.484375,5.625 c 0.078125,0.15625 0.140625,0.203125 0.21875,0.203125 0.140625,0 0.171875,-0.0625 0.21875,-0.203125 z m 0,0"
               id="id-7868bb2d-1805-40a3-91c1-2541318603c6" />
          </g>
        </g>
      </defs>
      <g
         fill="#000000"
         fill-opacity="1"
         id="id-86429801-3f27-426b-afca-67a6b3750953"
         transform="translate(-149.696,-127.281)">
        <g
           transform="translate(148.712,134.765)"
           id="g3085">
          <path
             d="m 3.296875,2.390625 c 0,-0.03125 0,-0.046875 -0.171875,-0.21875 C 1.890625,0.921875 1.5625,-0.96875 1.5625,-2.5 c 0,-1.734375 0.375,-3.46875 1.609375,-4.703125 0.125,-0.125 0.125,-0.140625 0.125,-0.171875 0,-0.078125 -0.03125,-0.109375 -0.09375,-0.109375 -0.109375,0 -1,0.6875 -1.59375,1.953125 -0.5,1.09375 -0.625,2.203125 -0.625,3.03125 0,0.78125 0.109375,1.984375 0.65625,3.125 C 2.25,1.84375 3.09375,2.5 3.203125,2.5 c 0.0625,0 0.09375,-0.03125 0.09375,-0.109375 z m 0,0"
             id="id-e0bad13f-674d-44ea-8661-35d9cf2a3aac" />
        </g>
      </g>
      <g
         fill="#000000"
         fill-opacity="1"
         id="id-a1bc761c-5daf-4cd0-9769-81f854eaf2e1"
         transform="translate(-149.696,-127.281)">
        <g
           transform="translate(152.587,134.765)"
           id="g3882">
          <path
             d="M 3.71875,-3.765625 C 3.53125,-4.140625 3.25,-4.40625 2.796875,-4.40625 c -1.15625,0 -2.390625,1.46875 -2.390625,2.921875 0,0.9375 0.546875,1.59375 1.3125,1.59375 0.203125,0 0.703125,-0.046875 1.296875,-0.75 0.078125,0.421875 0.4375,0.75 0.90625,0.75 0.359375,0 0.578125,-0.234375 0.75,-0.546875 0.15625,-0.359375 0.296875,-0.96875 0.296875,-0.984375 0,-0.109375 -0.09375,-0.109375 -0.125,-0.109375 -0.09375,0 -0.109375,0.046875 -0.140625,0.1875 -0.171875,0.640625 -0.34375,1.234375 -0.75,1.234375 -0.28125,0 -0.296875,-0.265625 -0.296875,-0.453125 0,-0.21875 0.015625,-0.3125 0.125,-0.75 C 3.890625,-1.71875 3.90625,-1.828125 4,-2.203125 L 4.359375,-3.59375 c 0.0625,-0.28125 0.0625,-0.296875 0.0625,-0.34375 0,-0.171875 -0.109375,-0.265625 -0.28125,-0.265625 -0.25,0 -0.390625,0.21875 -0.421875,0.4375 z M 3.078125,-1.1875 C 3.015625,-1 3.015625,-0.984375 2.875,-0.8125 2.4375,-0.265625 2.03125,-0.109375 1.75,-0.109375 c -0.5,0 -0.640625,-0.546875 -0.640625,-0.9375 0,-0.5 0.3125,-1.71875 0.546875,-2.1875 0.3125,-0.578125 0.75,-0.953125 1.15625,-0.953125 0.640625,0 0.78125,0.8125 0.78125,0.875 0,0.0625 -0.015625,0.125 -0.03125,0.171875 z m 0,0"
             id="id-657c661f-f623-4412-ae4d-62caa1ea09ca" />
        </g>
      </g>
      <g
         fill="#000000"
         fill-opacity="1"
         id="id-233b863c-eb96-454c-b389-00c0838824e4"
         transform="translate(-149.696,-127.281)">
        <g
           transform="translate(157.853,136.259)"
           id="g1276">
          <path
             d="m 2.328125,-4.4375 c 0,-0.1875 0,-0.1875 -0.203125,-0.1875 -0.453125,0.4375 -1.078125,0.4375 -1.359375,0.4375 v 0.25 c 0.15625,0 0.625,0 1,-0.1875 v 3.546875 c 0,0.234375 0,0.328125 -0.6875,0.328125 H 0.8125 V 0 c 0.125,0 0.984375,-0.03125 1.234375,-0.03125 0.21875,0 1.09375,0.03125 1.25,0.03125 V -0.25 H 3.03125 c -0.703125,0 -0.703125,-0.09375 -0.703125,-0.328125 z m 0,0"
             id="id-e185ffb3-d4e4-491d-a437-76dbc7b98631" />
        </g>
      </g>
      <g
         fill="#000000"
         fill-opacity="1"
         id="id-a2ec2c77-4854-4ea7-90ad-abbf87cbba7f"
         transform="translate(-149.696,-127.281)">
        <g
           transform="translate(164.536,134.765)"
           id="g1973">
          <path
             d="M 6.015625,-5.5625 C 6.078125,-5.6875 6.09375,-5.71875 6.09375,-5.765625 6.09375,-5.875 6,-5.96875 5.890625,-5.96875 c -0.09375,0 -0.15625,0.078125 -0.234375,0.234375 L 3.3125,-0.46875 0.984375,-5.75 C 0.890625,-5.9375 0.8125,-5.96875 0.75,-5.96875 c -0.109375,0 -0.203125,0.09375 -0.203125,0.203125 0,0.03125 0,0.046875 0.0625,0.15625 l 2.484375,5.625 c 0.078125,0.15625 0.140625,0.203125 0.21875,0.203125 0.140625,0 0.171875,-0.0625 0.21875,-0.203125 z m 0,0"
             id="id-af0c4c68-074d-4657-b1c6-d236c3a68e67" />
        </g>
      </g>
      <g
         fill="#000000"
         fill-opacity="1"
         id="id-c7842487-5b39-47f1-8a0b-f6dcba777107"
         transform="translate(-149.696,-127.281)">
        <g
           transform="translate(173.392,134.765)"
           id="g2592">
          <path
             d="M 3.71875,-3.765625 C 3.53125,-4.140625 3.25,-4.40625 2.796875,-4.40625 c -1.15625,0 -2.390625,1.46875 -2.390625,2.921875 0,0.9375 0.546875,1.59375 1.3125,1.59375 0.203125,0 0.703125,-0.046875 1.296875,-0.75 0.078125,0.421875 0.4375,0.75 0.90625,0.75 0.359375,0 0.578125,-0.234375 0.75,-0.546875 0.15625,-0.359375 0.296875,-0.96875 0.296875,-0.984375 0,-0.109375 -0.09375,-0.109375 -0.125,-0.109375 -0.09375,0 -0.109375,0.046875 -0.140625,0.1875 -0.171875,0.640625 -0.34375,1.234375 -0.75,1.234375 -0.28125,0 -0.296875,-0.265625 -0.296875,-0.453125 0,-0.21875 0.015625,-0.3125 0.125,-0.75 C 3.890625,-1.71875 3.90625,-1.828125 4,-2.203125 L 4.359375,-3.59375 c 0.0625,-0.28125 0.0625,-0.296875 0.0625,-0.34375 0,-0.171875 -0.109375,-0.265625 -0.28125,-0.265625 -0.25,0 -0.390625,0.21875 -0.421875,0.4375 z M 3.078125,-1.1875 C 3.015625,-1 3.015625,-0.984375 2.875,-0.8125 2.4375,-0.265625 2.03125,-0.109375 1.75,-0.109375 c -0.5,0 -0.640625,-0.546875 -0.640625,-0.9375 0,-0.5 0.3125,-1.71875 0.546875,-2.1875 0.3125,-0.578125 0.75,-0.953125 1.15625,-0.953125 0.640625,0 0.78125,0.8125 0.78125,0.875 0,0.0625 -0.015625,0.125 -0.03125,0.171875 z m 0,0"
             id="id-7c91a8fd-c0ce-46fe-af9b-2c8e0460a60f" />
        </g>
      </g>
      <g
         fill="#000000"
         fill-opacity="1"
         id="id-846446e4-c83f-4c84-b1af-cf78f696ed39"
         transform="translate(-149.696,-127.281)">
        <g
           transform="translate(178.658,136.259)"
           id="g4142">
          <path
             d="M 3.515625,-1.265625 H 3.28125 c -0.015625,0.15625 -0.09375,0.5625 -0.1875,0.625 C 3.046875,-0.59375 2.515625,-0.59375 2.40625,-0.59375 H 1.125 c 0.734375,-0.640625 0.984375,-0.84375 1.390625,-1.171875 0.515625,-0.40625 1,-0.84375 1,-1.5 0,-0.84375 -0.734375,-1.359375 -1.625,-1.359375 -0.859375,0 -1.453125,0.609375 -1.453125,1.25 0,0.34375 0.296875,0.390625 0.375,0.390625 0.15625,0 0.359375,-0.125 0.359375,-0.375 0,-0.125 -0.046875,-0.375 -0.40625,-0.375 C 0.984375,-4.21875 1.453125,-4.375 1.78125,-4.375 c 0.703125,0 1.0625,0.546875 1.0625,1.109375 0,0.609375 -0.4375,1.078125 -0.65625,1.328125 L 0.515625,-0.265625 C 0.4375,-0.203125 0.4375,-0.1875 0.4375,0 h 2.875 z m 0,0"
             id="id-a22292e0-cefe-4b73-8619-aa0c2c38df66" />
        </g>
      </g>
      <g
         fill="#000000"
         fill-opacity="1"
         id="id-53cf3612-3027-4e82-b8b9-baece31288d8"
         transform="translate(-149.696,-127.281)">
        <g
           transform="translate(185.341,134.765)"
           id="g1895">
          <path
             d="M 6.015625,-5.5625 C 6.078125,-5.6875 6.09375,-5.71875 6.09375,-5.765625 6.09375,-5.875 6,-5.96875 5.890625,-5.96875 c -0.09375,0 -0.15625,0.078125 -0.234375,0.234375 L 3.3125,-0.46875 0.984375,-5.75 C 0.890625,-5.9375 0.8125,-5.96875 0.75,-5.96875 c -0.109375,0 -0.203125,0.09375 -0.203125,0.203125 0,0.03125 0,0.046875 0.0625,0.15625 l 2.484375,5.625 c 0.078125,0.15625 0.140625,0.203125 0.21875,0.203125 0.140625,0 0.171875,-0.0625 0.21875,-0.203125 z m 0,0"
             id="id-98de8b1c-396b-4fa4-81ac-2d8fe8fb92a5" />
        </g>
      </g>
      <g
         fill="#000000"
         fill-opacity="1"
         id="id-ea11b46b-2568-49fa-bcb3-0118f8603bc5"
         transform="translate(-149.696,-127.281)">
        <g
           transform="translate(194.197,134.765)"
           id="g5733">
          <path
             d="M 3.71875,-3.765625 C 3.53125,-4.140625 3.25,-4.40625 2.796875,-4.40625 c -1.15625,0 -2.390625,1.46875 -2.390625,2.921875 0,0.9375 0.546875,1.59375 1.3125,1.59375 0.203125,0 0.703125,-0.046875 1.296875,-0.75 0.078125,0.421875 0.4375,0.75 0.90625,0.75 0.359375,0 0.578125,-0.234375 0.75,-0.546875 0.15625,-0.359375 0.296875,-0.96875 0.296875,-0.984375 0,-0.109375 -0.09375,-0.109375 -0.125,-0.109375 -0.09375,0 -0.109375,0.046875 -0.140625,0.1875 -0.171875,0.640625 -0.34375,1.234375 -0.75,1.234375 -0.28125,0 -0.296875,-0.265625 -0.296875,-0.453125 0,-0.21875 0.015625,-0.3125 0.125,-0.75 C 3.890625,-1.71875 3.90625,-1.828125 4,-2.203125 L 4.359375,-3.59375 c 0.0625,-0.28125 0.0625,-0.296875 0.0625,-0.34375 0,-0.171875 -0.109375,-0.265625 -0.28125,-0.265625 -0.25,0 -0.390625,0.21875 -0.421875,0.4375 z M 3.078125,-1.1875 C 3.015625,-1 3.015625,-0.984375 2.875,-0.8125 2.4375,-0.265625 2.03125,-0.109375 1.75,-0.109375 c -0.5,0 -0.640625,-0.546875 -0.640625,-0.9375 0,-0.5 0.3125,-1.71875 0.546875,-2.1875 0.3125,-0.578125 0.75,-0.953125 1.15625,-0.953125 0.640625,0 0.78125,0.8125 0.78125,0.875 0,0.0625 -0.015625,0.125 -0.03125,0.171875 z m 0,0"
             id="id-00e463de-6a97-405c-8cac-f4ac7dd77d42" />
        </g>
      </g>
      <g
         fill="#000000"
         fill-opacity="1"
         id="id-814ef3fa-8ff9-42c2-983e-80e0dfb0b6fb"
         transform="translate(-149.696,-127.281)">
        <g
           transform="translate(199.463,136.259)"
           id="g9481">
          <path
             d="m 1.90625,-2.328125 c 0.546875,0 0.9375,0.375 0.9375,1.125 0,0.859375 -0.515625,1.125 -0.90625,1.125 -0.28125,0 -0.90625,-0.078125 -1.1875,-0.5 0.328125,0 0.40625,-0.234375 0.40625,-0.390625 0,-0.21875 -0.171875,-0.375 -0.390625,-0.375 -0.1875,0 -0.390625,0.125 -0.390625,0.40625 0,0.65625 0.71875,1.078125 1.5625,1.078125 0.96875,0 1.640625,-0.65625 1.640625,-1.34375 0,-0.546875 -0.4375,-1.09375 -1.203125,-1.25 0.71875,-0.265625 0.984375,-0.78125 0.984375,-1.21875 0,-0.546875 -0.625,-0.953125 -1.40625,-0.953125 -0.765625,0 -1.359375,0.375 -1.359375,0.9375 0,0.234375 0.15625,0.359375 0.359375,0.359375 0.21875,0 0.359375,-0.15625 0.359375,-0.34375 0,-0.203125 -0.140625,-0.359375 -0.359375,-0.375 0.25,-0.296875 0.71875,-0.375 0.984375,-0.375 0.3125,0 0.75,0.15625 0.75,0.75 0,0.296875 -0.09375,0.625 -0.28125,0.828125 -0.21875,0.265625 -0.421875,0.28125 -0.765625,0.3125 -0.171875,0.015625 -0.1875,0.015625 -0.21875,0.015625 -0.015625,0 -0.078125,0.015625 -0.078125,0.09375 0,0.09375 0.0625,0.09375 0.1875,0.09375 z m 0,0"
             id="id-2f9a9465-d892-4974-bc0e-1fe090fa2fbe" />
        </g>
      </g>
      <g
         fill="#000000"
         fill-opacity="1"
         id="id-801ef21d-092c-4654-ab77-279518455329"
         transform="translate(-149.696,-127.281)">
        <g
           transform="translate(203.932,134.765)"
           id="g1475">
          <path
             d="m 2.875,-2.5 c 0,-0.765625 -0.109375,-1.96875 -0.65625,-3.109375 -0.59375,-1.21875 -1.453125,-1.875 -1.546875,-1.875 -0.0625,0 -0.109375,0.046875 -0.109375,0.109375 0,0.03125 0,0.046875 0.1875,0.234375 0.984375,0.984375 1.546875,2.5625 1.546875,4.640625 0,1.71875 -0.359375,3.46875 -1.59375,4.71875 C 0.5625,2.34375 0.5625,2.359375 0.5625,2.390625 0.5625,2.453125 0.609375,2.5 0.671875,2.5 0.765625,2.5 1.671875,1.8125 2.25,0.546875 2.765625,-0.546875 2.875,-1.65625 2.875,-2.5 Z m 0,0"
             id="id-262d6e56-d497-427e-8c9e-e1b7eae3d9fc" />
        </g>
      </g>
    </g>
    <g
       transform="matrix(1.33333,0,0,1.33333,225.97727,189.02502)"
       ns10:version="1.9.0"
       ns10:texconverter="pdflatex"
       ns10:pdfconverter="inkscape"
       ns10:text="$a_1$"
       ns10:preamble="/Users/trustinnguyen/Library/Application Support/org.inkscape.Inkscape/config/inkscape/extensions/textext/default_packages.tex"
       ns10:scale="1.0"
       ns10:alignment="middle center"
       ns10:stroke-to-path="0"
       ns10:inkscapeversion="0.92.4"
       id="g5734"
       ns10:jacobian_sqrt="1.33333">
      <defs
         id="id-bf03bef4-ea69-495d-8397-666dc3360025">
        <g
           id="id-43774fd8-a898-433a-bfc3-65417877d198">
          <g
             id="id-73e84b93-0e9d-4240-a435-e572d7538d1c">
            <path
               d="M 3.71875,-3.765625 C 3.53125,-4.140625 3.25,-4.40625 2.796875,-4.40625 c -1.15625,0 -2.390625,1.46875 -2.390625,2.921875 0,0.9375 0.546875,1.59375 1.3125,1.59375 0.203125,0 0.703125,-0.046875 1.296875,-0.75 0.078125,0.421875 0.4375,0.75 0.90625,0.75 0.359375,0 0.578125,-0.234375 0.75,-0.546875 0.15625,-0.359375 0.296875,-0.96875 0.296875,-0.984375 0,-0.109375 -0.09375,-0.109375 -0.125,-0.109375 -0.09375,0 -0.109375,0.046875 -0.140625,0.1875 -0.171875,0.640625 -0.34375,1.234375 -0.75,1.234375 -0.28125,0 -0.296875,-0.265625 -0.296875,-0.453125 0,-0.21875 0.015625,-0.3125 0.125,-0.75 C 3.890625,-1.71875 3.90625,-1.828125 4,-2.203125 L 4.359375,-3.59375 c 0.0625,-0.28125 0.0625,-0.296875 0.0625,-0.34375 0,-0.171875 -0.109375,-0.265625 -0.28125,-0.265625 -0.25,0 -0.390625,0.21875 -0.421875,0.4375 z M 3.078125,-1.1875 C 3.015625,-1 3.015625,-0.984375 2.875,-0.8125 2.4375,-0.265625 2.03125,-0.109375 1.75,-0.109375 c -0.5,0 -0.640625,-0.546875 -0.640625,-0.9375 0,-0.5 0.3125,-1.71875 0.546875,-2.1875 0.3125,-0.578125 0.75,-0.953125 1.15625,-0.953125 0.640625,0 0.78125,0.8125 0.78125,0.875 0,0.0625 -0.015625,0.125 -0.03125,0.171875 z m 0,0"
               id="id-eb0de1c6-9ee1-4469-9486-64fdc27643bb" />
          </g>
          <g
             id="id-efefdd5f-665b-4e02-b169-4182f0c885ce">
            <path
               d="m 2.328125,-4.4375 c 0,-0.1875 0,-0.1875 -0.203125,-0.1875 -0.453125,0.4375 -1.078125,0.4375 -1.359375,0.4375 v 0.25 c 0.15625,0 0.625,0 1,-0.1875 v 3.546875 c 0,0.234375 0,0.328125 -0.6875,0.328125 H 0.8125 V 0 c 0.125,0 0.984375,-0.03125 1.234375,-0.03125 0.21875,0 1.09375,0.03125 1.25,0.03125 V -0.25 H 3.03125 c -0.703125,0 -0.703125,-0.09375 -0.703125,-0.328125 z m 0,0"
               id="id-792af2fa-ba75-4ae2-81d6-90da5e81d185" />
          </g>
        </g>
      </defs>
      <g
         fill="#000000"
         fill-opacity="1"
         id="id-97f86d6f-fe50-4623-96ea-251df3ba7167"
         transform="translate(-149.118,-130.359)">
        <g
           transform="translate(148.712,134.765)"
           id="g2810">
          <path
             d="M 3.71875,-3.765625 C 3.53125,-4.140625 3.25,-4.40625 2.796875,-4.40625 c -1.15625,0 -2.390625,1.46875 -2.390625,2.921875 0,0.9375 0.546875,1.59375 1.3125,1.59375 0.203125,0 0.703125,-0.046875 1.296875,-0.75 0.078125,0.421875 0.4375,0.75 0.90625,0.75 0.359375,0 0.578125,-0.234375 0.75,-0.546875 0.15625,-0.359375 0.296875,-0.96875 0.296875,-0.984375 0,-0.109375 -0.09375,-0.109375 -0.125,-0.109375 -0.09375,0 -0.109375,0.046875 -0.140625,0.1875 -0.171875,0.640625 -0.34375,1.234375 -0.75,1.234375 -0.28125,0 -0.296875,-0.265625 -0.296875,-0.453125 0,-0.21875 0.015625,-0.3125 0.125,-0.75 C 3.890625,-1.71875 3.90625,-1.828125 4,-2.203125 L 4.359375,-3.59375 c 0.0625,-0.28125 0.0625,-0.296875 0.0625,-0.34375 0,-0.171875 -0.109375,-0.265625 -0.28125,-0.265625 -0.25,0 -0.390625,0.21875 -0.421875,0.4375 z M 3.078125,-1.1875 C 3.015625,-1 3.015625,-0.984375 2.875,-0.8125 2.4375,-0.265625 2.03125,-0.109375 1.75,-0.109375 c -0.5,0 -0.640625,-0.546875 -0.640625,-0.9375 0,-0.5 0.3125,-1.71875 0.546875,-2.1875 0.3125,-0.578125 0.75,-0.953125 1.15625,-0.953125 0.640625,0 0.78125,0.8125 0.78125,0.875 0,0.0625 -0.015625,0.125 -0.03125,0.171875 z m 0,0"
             id="id-7f8a5c11-038b-44c9-8f10-9390f8dbc55e" />
        </g>
      </g>
      <g
         fill="#000000"
         fill-opacity="1"
         id="id-c6c7ea88-e29f-47b4-98ba-b1f604bc6705"
         transform="translate(-149.118,-130.359)">
        <g
           transform="translate(153.978,136.259)"
           id="g1351">
          <path
             d="m 2.328125,-4.4375 c 0,-0.1875 0,-0.1875 -0.203125,-0.1875 -0.453125,0.4375 -1.078125,0.4375 -1.359375,0.4375 v 0.25 c 0.15625,0 0.625,0 1,-0.1875 v 3.546875 c 0,0.234375 0,0.328125 -0.6875,0.328125 H 0.8125 V 0 c 0.125,0 0.984375,-0.03125 1.234375,-0.03125 0.21875,0 1.09375,0.03125 1.25,0.03125 V -0.25 H 3.03125 c -0.703125,0 -0.703125,-0.09375 -0.703125,-0.328125 z m 0,0"
             id="id-876b563e-42c9-4b2e-afc1-97d383e03ed4" />
        </g>
      </g>
    </g>
    <g
       transform="matrix(1.33333,0,0,1.33333,225.83127,239.32983)"
       ns10:version="1.9.0"
       ns10:texconverter="pdflatex"
       ns10:pdfconverter="inkscape"
       ns10:text="$a_2$"
       ns10:preamble="/Users/trustinnguyen/Library/Application Support/org.inkscape.Inkscape/config/inkscape/extensions/textext/default_packages.tex"
       ns10:scale="1.0"
       ns10:alignment="middle center"
       ns10:stroke-to-path="0"
       ns10:inkscapeversion="0.92.4"
       id="g8181"
       ns10:jacobian_sqrt="1.33333">
      <defs
         id="id-517f38dd-e4ce-4447-9dcf-524d504cfed7">
        <g
           id="id-424ec803-6f32-45db-b446-afff16d00145">
          <g
             id="id-4f1516e3-ad40-4d7e-be94-9ef70399d4f9">
            <path
               d="M 3.71875,-3.765625 C 3.53125,-4.140625 3.25,-4.40625 2.796875,-4.40625 c -1.15625,0 -2.390625,1.46875 -2.390625,2.921875 0,0.9375 0.546875,1.59375 1.3125,1.59375 0.203125,0 0.703125,-0.046875 1.296875,-0.75 0.078125,0.421875 0.4375,0.75 0.90625,0.75 0.359375,0 0.578125,-0.234375 0.75,-0.546875 0.15625,-0.359375 0.296875,-0.96875 0.296875,-0.984375 0,-0.109375 -0.09375,-0.109375 -0.125,-0.109375 -0.09375,0 -0.109375,0.046875 -0.140625,0.1875 -0.171875,0.640625 -0.34375,1.234375 -0.75,1.234375 -0.28125,0 -0.296875,-0.265625 -0.296875,-0.453125 0,-0.21875 0.015625,-0.3125 0.125,-0.75 C 3.890625,-1.71875 3.90625,-1.828125 4,-2.203125 L 4.359375,-3.59375 c 0.0625,-0.28125 0.0625,-0.296875 0.0625,-0.34375 0,-0.171875 -0.109375,-0.265625 -0.28125,-0.265625 -0.25,0 -0.390625,0.21875 -0.421875,0.4375 z M 3.078125,-1.1875 C 3.015625,-1 3.015625,-0.984375 2.875,-0.8125 2.4375,-0.265625 2.03125,-0.109375 1.75,-0.109375 c -0.5,0 -0.640625,-0.546875 -0.640625,-0.9375 0,-0.5 0.3125,-1.71875 0.546875,-2.1875 0.3125,-0.578125 0.75,-0.953125 1.15625,-0.953125 0.640625,0 0.78125,0.8125 0.78125,0.875 0,0.0625 -0.015625,0.125 -0.03125,0.171875 z m 0,0"
               id="id-6cde7836-666d-4469-92ac-1f9a9d3157ee" />
          </g>
          <g
             id="id-b22e549f-895b-4b7b-83d9-3e20cb85c0a1">
            <path
               d="M 3.515625,-1.265625 H 3.28125 c -0.015625,0.15625 -0.09375,0.5625 -0.1875,0.625 C 3.046875,-0.59375 2.515625,-0.59375 2.40625,-0.59375 H 1.125 c 0.734375,-0.640625 0.984375,-0.84375 1.390625,-1.171875 0.515625,-0.40625 1,-0.84375 1,-1.5 0,-0.84375 -0.734375,-1.359375 -1.625,-1.359375 -0.859375,0 -1.453125,0.609375 -1.453125,1.25 0,0.34375 0.296875,0.390625 0.375,0.390625 0.15625,0 0.359375,-0.125 0.359375,-0.375 0,-0.125 -0.046875,-0.375 -0.40625,-0.375 C 0.984375,-4.21875 1.453125,-4.375 1.78125,-4.375 c 0.703125,0 1.0625,0.546875 1.0625,1.109375 0,0.609375 -0.4375,1.078125 -0.65625,1.328125 L 0.515625,-0.265625 C 0.4375,-0.203125 0.4375,-0.1875 0.4375,0 h 2.875 z m 0,0"
               id="id-2cbd1415-d61f-45d3-aba7-19e44dabe9f9" />
          </g>
        </g>
      </defs>
      <g
         fill="#000000"
         fill-opacity="1"
         id="id-88bc1e5e-c0c4-472e-be0f-b1b92e6d9042"
         transform="translate(-149.118,-130.359)">
        <g
           transform="translate(148.712,134.765)"
           id="g2803">
          <path
             d="M 3.71875,-3.765625 C 3.53125,-4.140625 3.25,-4.40625 2.796875,-4.40625 c -1.15625,0 -2.390625,1.46875 -2.390625,2.921875 0,0.9375 0.546875,1.59375 1.3125,1.59375 0.203125,0 0.703125,-0.046875 1.296875,-0.75 0.078125,0.421875 0.4375,0.75 0.90625,0.75 0.359375,0 0.578125,-0.234375 0.75,-0.546875 0.15625,-0.359375 0.296875,-0.96875 0.296875,-0.984375 0,-0.109375 -0.09375,-0.109375 -0.125,-0.109375 -0.09375,0 -0.109375,0.046875 -0.140625,0.1875 -0.171875,0.640625 -0.34375,1.234375 -0.75,1.234375 -0.28125,0 -0.296875,-0.265625 -0.296875,-0.453125 0,-0.21875 0.015625,-0.3125 0.125,-0.75 C 3.890625,-1.71875 3.90625,-1.828125 4,-2.203125 L 4.359375,-3.59375 c 0.0625,-0.28125 0.0625,-0.296875 0.0625,-0.34375 0,-0.171875 -0.109375,-0.265625 -0.28125,-0.265625 -0.25,0 -0.390625,0.21875 -0.421875,0.4375 z M 3.078125,-1.1875 C 3.015625,-1 3.015625,-0.984375 2.875,-0.8125 2.4375,-0.265625 2.03125,-0.109375 1.75,-0.109375 c -0.5,0 -0.640625,-0.546875 -0.640625,-0.9375 0,-0.5 0.3125,-1.71875 0.546875,-2.1875 0.3125,-0.578125 0.75,-0.953125 1.15625,-0.953125 0.640625,0 0.78125,0.8125 0.78125,0.875 0,0.0625 -0.015625,0.125 -0.03125,0.171875 z m 0,0"
             id="id-0ed483d3-8e54-4760-9777-44718735600b" />
        </g>
      </g>
      <g
         fill="#000000"
         fill-opacity="1"
         id="id-bb340732-25f0-46d2-8798-6a290d23c738"
         transform="translate(-149.118,-130.359)">
        <g
           transform="translate(153.978,136.259)"
           id="g4886">
          <path
             d="M 3.515625,-1.265625 H 3.28125 c -0.015625,0.15625 -0.09375,0.5625 -0.1875,0.625 C 3.046875,-0.59375 2.515625,-0.59375 2.40625,-0.59375 H 1.125 c 0.734375,-0.640625 0.984375,-0.84375 1.390625,-1.171875 0.515625,-0.40625 1,-0.84375 1,-1.5 0,-0.84375 -0.734375,-1.359375 -1.625,-1.359375 -0.859375,0 -1.453125,0.609375 -1.453125,1.25 0,0.34375 0.296875,0.390625 0.375,0.390625 0.15625,0 0.359375,-0.125 0.359375,-0.375 0,-0.125 -0.046875,-0.375 -0.40625,-0.375 C 0.984375,-4.21875 1.453125,-4.375 1.78125,-4.375 c 0.703125,0 1.0625,0.546875 1.0625,1.109375 0,0.609375 -0.4375,1.078125 -0.65625,1.328125 L 0.515625,-0.265625 C 0.4375,-0.203125 0.4375,-0.1875 0.4375,0 h 2.875 z m 0,0"
             id="id-6050f6a2-da38-4a7d-bddb-ed52166a7911" />
        </g>
      </g>
    </g>
    <g
       transform="matrix(1.33333,0,0,1.33333,225.54024,267.37764)"
       ns10:version="1.9.0"
       ns10:texconverter="pdflatex"
       ns10:pdfconverter="inkscape"
       ns10:text="$a_3$"
       ns10:preamble="/Users/trustinnguyen/Library/Application Support/org.inkscape.Inkscape/config/inkscape/extensions/textext/default_packages.tex"
       ns10:scale="1.0"
       ns10:alignment="middle center"
       ns10:stroke-to-path="0"
       ns10:inkscapeversion="0.92.4"
       id="g6698"
       ns10:jacobian_sqrt="1.33333">
      <defs
         id="id-2eed4afe-632a-40c9-8c74-bbbcb1933923">
        <g
           id="id-59148ce4-970d-43a4-902a-61e8a8291e7a">
          <g
             id="id-e5cce405-00c1-4413-b644-ef0bf91dfbd7">
            <path
               d="M 3.71875,-3.765625 C 3.53125,-4.140625 3.25,-4.40625 2.796875,-4.40625 c -1.15625,0 -2.390625,1.46875 -2.390625,2.921875 0,0.9375 0.546875,1.59375 1.3125,1.59375 0.203125,0 0.703125,-0.046875 1.296875,-0.75 0.078125,0.421875 0.4375,0.75 0.90625,0.75 0.359375,0 0.578125,-0.234375 0.75,-0.546875 0.15625,-0.359375 0.296875,-0.96875 0.296875,-0.984375 0,-0.109375 -0.09375,-0.109375 -0.125,-0.109375 -0.09375,0 -0.109375,0.046875 -0.140625,0.1875 -0.171875,0.640625 -0.34375,1.234375 -0.75,1.234375 -0.28125,0 -0.296875,-0.265625 -0.296875,-0.453125 0,-0.21875 0.015625,-0.3125 0.125,-0.75 C 3.890625,-1.71875 3.90625,-1.828125 4,-2.203125 L 4.359375,-3.59375 c 0.0625,-0.28125 0.0625,-0.296875 0.0625,-0.34375 0,-0.171875 -0.109375,-0.265625 -0.28125,-0.265625 -0.25,0 -0.390625,0.21875 -0.421875,0.4375 z M 3.078125,-1.1875 C 3.015625,-1 3.015625,-0.984375 2.875,-0.8125 2.4375,-0.265625 2.03125,-0.109375 1.75,-0.109375 c -0.5,0 -0.640625,-0.546875 -0.640625,-0.9375 0,-0.5 0.3125,-1.71875 0.546875,-2.1875 0.3125,-0.578125 0.75,-0.953125 1.15625,-0.953125 0.640625,0 0.78125,0.8125 0.78125,0.875 0,0.0625 -0.015625,0.125 -0.03125,0.171875 z m 0,0"
               id="id-e832e722-ba69-433b-9340-5b5d804ffd62" />
          </g>
          <g
             id="id-babcaba4-508f-4b32-ac57-306ca32480b3">
            <path
               d="m 1.90625,-2.328125 c 0.546875,0 0.9375,0.375 0.9375,1.125 0,0.859375 -0.515625,1.125 -0.90625,1.125 -0.28125,0 -0.90625,-0.078125 -1.1875,-0.5 0.328125,0 0.40625,-0.234375 0.40625,-0.390625 0,-0.21875 -0.171875,-0.375 -0.390625,-0.375 -0.1875,0 -0.390625,0.125 -0.390625,0.40625 0,0.65625 0.71875,1.078125 1.5625,1.078125 0.96875,0 1.640625,-0.65625 1.640625,-1.34375 0,-0.546875 -0.4375,-1.09375 -1.203125,-1.25 0.71875,-0.265625 0.984375,-0.78125 0.984375,-1.21875 0,-0.546875 -0.625,-0.953125 -1.40625,-0.953125 -0.765625,0 -1.359375,0.375 -1.359375,0.9375 0,0.234375 0.15625,0.359375 0.359375,0.359375 0.21875,0 0.359375,-0.15625 0.359375,-0.34375 0,-0.203125 -0.140625,-0.359375 -0.359375,-0.375 0.25,-0.296875 0.71875,-0.375 0.984375,-0.375 0.3125,0 0.75,0.15625 0.75,0.75 0,0.296875 -0.09375,0.625 -0.28125,0.828125 -0.21875,0.265625 -0.421875,0.28125 -0.765625,0.3125 -0.171875,0.015625 -0.1875,0.015625 -0.21875,0.015625 -0.015625,0 -0.078125,0.015625 -0.078125,0.09375 0,0.09375 0.0625,0.09375 0.1875,0.09375 z m 0,0"
               id="id-925114ec-cfae-4bd2-8cd4-218a3855b59a" />
          </g>
        </g>
      </defs>
      <g
         fill="#000000"
         fill-opacity="1"
         id="id-24797b49-ff33-4fcd-9639-de964e864f59"
         transform="translate(-149.118,-130.359)">
        <g
           transform="translate(148.712,134.765)"
           id="g1208">
          <path
             d="M 3.71875,-3.765625 C 3.53125,-4.140625 3.25,-4.40625 2.796875,-4.40625 c -1.15625,0 -2.390625,1.46875 -2.390625,2.921875 0,0.9375 0.546875,1.59375 1.3125,1.59375 0.203125,0 0.703125,-0.046875 1.296875,-0.75 0.078125,0.421875 0.4375,0.75 0.90625,0.75 0.359375,0 0.578125,-0.234375 0.75,-0.546875 0.15625,-0.359375 0.296875,-0.96875 0.296875,-0.984375 0,-0.109375 -0.09375,-0.109375 -0.125,-0.109375 -0.09375,0 -0.109375,0.046875 -0.140625,0.1875 -0.171875,0.640625 -0.34375,1.234375 -0.75,1.234375 -0.28125,0 -0.296875,-0.265625 -0.296875,-0.453125 0,-0.21875 0.015625,-0.3125 0.125,-0.75 C 3.890625,-1.71875 3.90625,-1.828125 4,-2.203125 L 4.359375,-3.59375 c 0.0625,-0.28125 0.0625,-0.296875 0.0625,-0.34375 0,-0.171875 -0.109375,-0.265625 -0.28125,-0.265625 -0.25,0 -0.390625,0.21875 -0.421875,0.4375 z M 3.078125,-1.1875 C 3.015625,-1 3.015625,-0.984375 2.875,-0.8125 2.4375,-0.265625 2.03125,-0.109375 1.75,-0.109375 c -0.5,0 -0.640625,-0.546875 -0.640625,-0.9375 0,-0.5 0.3125,-1.71875 0.546875,-2.1875 0.3125,-0.578125 0.75,-0.953125 1.15625,-0.953125 0.640625,0 0.78125,0.8125 0.78125,0.875 0,0.0625 -0.015625,0.125 -0.03125,0.171875 z m 0,0"
             id="id-6e18eeab-4a58-41b3-a397-fd794fc00c91" />
        </g>
      </g>
      <g
         fill="#000000"
         fill-opacity="1"
         id="id-4e90092e-c568-4fbc-ab9d-e105a7062b64"
         transform="translate(-149.118,-130.359)">
        <g
           transform="translate(153.978,136.259)"
           id="g7119">
          <path
             d="m 1.90625,-2.328125 c 0.546875,0 0.9375,0.375 0.9375,1.125 0,0.859375 -0.515625,1.125 -0.90625,1.125 -0.28125,0 -0.90625,-0.078125 -1.1875,-0.5 0.328125,0 0.40625,-0.234375 0.40625,-0.390625 0,-0.21875 -0.171875,-0.375 -0.390625,-0.375 -0.1875,0 -0.390625,0.125 -0.390625,0.40625 0,0.65625 0.71875,1.078125 1.5625,1.078125 0.96875,0 1.640625,-0.65625 1.640625,-1.34375 0,-0.546875 -0.4375,-1.09375 -1.203125,-1.25 0.71875,-0.265625 0.984375,-0.78125 0.984375,-1.21875 0,-0.546875 -0.625,-0.953125 -1.40625,-0.953125 -0.765625,0 -1.359375,0.375 -1.359375,0.9375 0,0.234375 0.15625,0.359375 0.359375,0.359375 0.21875,0 0.359375,-0.15625 0.359375,-0.34375 0,-0.203125 -0.140625,-0.359375 -0.359375,-0.375 0.25,-0.296875 0.71875,-0.375 0.984375,-0.375 0.3125,0 0.75,0.15625 0.75,0.75 0,0.296875 -0.09375,0.625 -0.28125,0.828125 -0.21875,0.265625 -0.421875,0.28125 -0.765625,0.3125 -0.171875,0.015625 -0.1875,0.015625 -0.21875,0.015625 -0.015625,0 -0.078125,0.015625 -0.078125,0.09375 0,0.09375 0.0625,0.09375 0.1875,0.09375 z m 0,0"
             id="id-27f0bebe-c2bf-486c-b12d-c8ff0d25c4bd" />
        </g>
      </g>
    </g>
    <circle
       style="fill:url(#linearGradient11);fill-opacity:1;stroke:#000000;stroke-width:1.6;stroke-miterlimit:2"
       id="path1-2-5-7-9-9"
       cx="212.68121"
       cy="-271.00122"
       r="11.22119"
       transform="scale(1,-1)" />
  </g>
</svg>
