<?xml version="1.0" encoding="UTF-8" standalone="no"?>
<!-- Created with Inkscape (http://www.inkscape.org/) -->

<svg
   width="150mm"
   height="90mm"
   viewBox="0 0 240 120"
   version="1.1"
   id="svg8"
   inkscape:version="1.3 (0e150ed, 2023-07-21)"
   sodipodi:docname="node.svg"
   xmlns:inkscape="http://www.inkscape.org/namespaces/inkscape"
   xmlns:sodipodi="http://sodipodi.sourceforge.net/DTD/sodipodi-0.dtd"
   xmlns="http://www.w3.org/2000/svg"
   xmlns:svg="http://www.w3.org/2000/svg"
   xmlns:rdf="http://www.w3.org/1999/02/22-rdf-syntax-ns#"
   xmlns:cc="http://creativecommons.org/ns#"
   xmlns:dc="http://purl.org/dc/elements/1.1/">
  <sodipodi:namedview
     id="base"
     pagecolor="#ffffff"
     bordercolor="#666666"
     borderopacity="1.0"
     inkscape:pageopacity="0.0"
     inkscape:pageshadow="2"
     inkscape:zoom="0.99437388"
     inkscape:cx="284.6012"
     inkscape:cy="182.02409"
     inkscape:document-units="mm"
     inkscape:current-layer="layer1"
     showgrid="false"
     showborder="true"
     width="200mm"
     showguides="true"
     inkscape:guide-bbox="true"
     inkscape:window-width="2520"
     inkscape:window-height="995"
     inkscape:window-x="20"
     inkscape:window-y="65"
     inkscape:window-maximized="1"
     inkscape:showpageshadow="2"
     inkscape:pagecheckerboard="0"
     inkscape:deskcolor="#d1d1d1">
    <inkscape:grid
       type="xygrid"
       id="grid815"
       units="mm"
       spacingx="10"
       spacingy="10"
       empspacing="4"
       dotted="false"
       originx="0"
       originy="0"
       visible="false" />
  </sodipodi:namedview>
  <defs
     id="defs2" />
  <metadata
     id="metadata5">
    <rdf:RDF>
      <cc:Work
         rdf:about="">
        <dc:format>image/svg+xml</dc:format>
        <dc:type
           rdf:resource="http://purl.org/dc/dcmitype/StillImage" />
        <dc:title />
      </cc:Work>
    </rdf:RDF>
  </metadata>
  <g
     inkscape:label="Layer 1"
     inkscape:groupmode="layer"
     id="layer1"
     transform="translate(0, -177)">
    <path
       style="fill:#0000ff;fill-opacity:0;stroke:#0000ff;stroke-width:0.416"
       d="M 114.09525,168.40583 V 302.93605"
       id="path1" />
    <path
       style="fill:#0000ff;fill-opacity:0;stroke:#0000ff;stroke-width:0.416"
       d="M 7.2373849,231.41365 H 228.19049"
       id="path2" />
    <path
       style="fill:#0000ff;fill-opacity:0;stroke:#ff0000;stroke-width:0.416"
       d="m 142.19333,167.9801 c 0,0 -29.801,77.48259 -40.01848,79.61123 -10.217487,2.12865 -10.138943,-34.62512 0.42573,-30.65244 10.49023,3.94469 22.56361,42.57284 45.12722,83.01705"
       id="path3"
       sodipodi:nodetypes="cssc" />
    <g
       inkscape:label=""
       transform="translate(143.82531,169.26588)"
       id="g3">
      <g
         fill="#000000"
         fill-opacity="1"
         id="g10"
         transform="matrix(0.47037,0,0,0.47037,-1.07709,-0.930099)">
        <g
           id="use9"
           transform="translate(1.993,13.194)">
          <path
             d="M 8.25,-8.8125 C 7.921875,-8.25 7.609375,-7.6875 7.359375,-7.09375 L 5.8125,-3.546875 C 5.28125,-2.390625 4.984375,-1.71875 4.890625,-1.703125 4.875,-1.703125 4.8125,-1.734375 4.796875,-1.78125 3.875,-4.140625 3.15625,-6.5625 2.65625,-9.046875 L 0.390625,-8.90625 0.296875,-8.828125 0.3125,-8.484375 C 1.03125,-8.375 1.328125,-8.3125 1.546875,-7.890625 1.796875,-7.3125 1.96875,-6.71875 2.15625,-6.125 l 1.859375,6.234375 0.125,0.09375 L 5.03125,-0.125 C 5.765625,-2.265625 6.703125,-4.34375 7.640625,-6.0625 7.796875,-6.328125 8.59375,-7.765625 9.4375,-8.78125 l -0.078125,-0.25 z m 0,0"
             id="path21" />
        </g>
      </g>
      <g
         fill="#000000"
         fill-opacity="1"
         id="g11"
         transform="matrix(0.47037,0,0,0.47037,-1.07709,-0.930099)">
        <g
           id="use10"
           transform="translate(11.434,13.194)">
          <path
             d="M 3.9375,-9.78125 C 1.96875,-8.5 0.78125,-6.28125 0.78125,-3.5 c 0,2.546875 1.21875,4.96875 3.125,6.265625 L 4.0625,2.53125 C 2.265625,0.984375 1.953125,-0.53125 1.953125,-3.546875 1.953125,-6.5625 2.3125,-8.140625 4.0625,-9.5625 Z m 0,0"
             id="path22" />
        </g>
      </g>
      <g
         fill="#000000"
         fill-opacity="1"
         id="g12"
         transform="matrix(0.47037,0,0,0.47037,-1.07709,-0.930099)">
        <g
           id="use11"
           transform="translate(15.915,13.194)">
          <path
             d="m 1.25,2.359375 c 0.359375,0.359375 1.046875,0.65625 1.65625,0.65625 1.375,0 2.71875,-0.703125 3.1875,-2.375 0.28125,-1.234375 0.078125,-3.984375 0.265625,-6.625 L 6.203125,-6.03125 5.1875,-5.546875 c 0.0625,0.890625 0.09375,1.828125 0.09375,2.765625 0,0.46875 -0.015625,0.921875 -0.015625,1.375 -0.484375,0.296875 -1.125,0.6875 -1.75,0.6875 -0.296875,0 -0.609375,-0.09375 -0.8125,-0.34375 C 2.5,-1.328125 2.390625,-1.71875 2.34375,-2.921875 c 0,-0.75 0.046875,-1.515625 0.046875,-2.234375 0,-0.484375 -0.25,-0.90625 -0.8125,-0.90625 -0.59375,0 -1.609375,0.734375 -1.796875,0.875 l 0.140625,0.234375 C 0.21875,-5.109375 0.625,-5.3125 0.84375,-5.3125 c 0.53125,0 0.59375,0.578125 0.59375,1.5 0,0.65625 -0.046875,1.203125 -0.046875,1.78125 0,0.859375 0.09375,2.140625 1.34375,2.140625 0.828125,0 1.703125,-0.546875 2.4375,-1 L 5.25,-0.828125 c -0.015625,0.40625 -0.03125,0.84375 -0.109375,1.265625 -0.125,0.734375 -0.4375,2.046875 -1.828125,2.046875 -0.578125,0 -1.078125,-0.5 -1.34375,-1 H 1.796875 l -0.5625,0.734375 z m 0,0"
             id="path23" />
        </g>
      </g>
      <g
         fill="#000000"
         fill-opacity="1"
         id="g13"
         transform="matrix(0.47037,0,0,0.47037,-1.07709,-0.930099)">
        <g
           id="use12"
           transform="translate(23.608,8.493)">
          <path
             d="M 4.421875,0.03125 C 4.40625,-0.171875 4.40625,-0.265625 4.40625,-0.390625 c 0,-0.125 0,-0.21875 0.015625,-0.4375 l -3.265625,0.09375 1.71875,-1.8125 c 0.921875,-0.984375 1.203125,-1.5 1.203125,-2.203125 0,-1.09375 -0.734375,-1.765625 -1.9375,-1.765625 -0.6875,0 -1.140625,0.1875 -1.609375,0.671875 L 0.375,-4.5625 H 0.640625 L 0.765625,-5 c 0.15625,-0.546875 0.484375,-0.78125 1.125,-0.78125 0.8125,0 1.328125,0.5 1.328125,1.3125 0,0.703125 -0.390625,1.40625 -1.453125,2.546875 L 0.15625,-0.21875 v 0.25 C 0.84375,0.015625 1.5625,0 2.265625,0 c 0.71875,0 1.4375,0.015625 2.15625,0.03125 z m 0,0"
             id="path24" />
        </g>
      </g>
      <g
         fill="#000000"
         fill-opacity="1"
         id="g14"
         transform="matrix(0.47037,0,0,0.47037,-1.07709,-0.930099)">
        <g
           id="use13"
           transform="translate(31.712,13.194)">
          <path
             d="M 7.828125,-3.125 V -3.890625 H 0.84375 V -3.125 Z m 0,0"
             id="path25" />
        </g>
      </g>
      <g
         fill="#000000"
         fill-opacity="1"
         id="g15"
         transform="matrix(0.47037,0,0,0.47037,-1.07709,-0.930099)">
        <g
           id="use14"
           transform="translate(43.254002,13.194)">
          <path
             d="m 5.46875,-5.984375 c -0.03125,-0.03125 -0.046875,-0.03125 -0.078125,-0.03125 -0.046875,0 -0.0625,0 -0.078125,0.03125 -0.578125,0.65625 -1.328125,1.5625 -1.796875,2.1875 L 3.4375,-3.8125 C 3.0625,-4.53125 2.53125,-5.46875 2.25,-5.765625 c -0.171875,-0.1875 -0.46875,-0.25 -0.703125,-0.25 -0.421875,0 -1.0625,0.484375 -1.515625,0.828125 l 0.171875,0.234375 c 0.234375,-0.15625 0.5625,-0.3125 0.828125,-0.3125 0.640625,0 1.265625,1.375 1.75,2.375 -0.625,0.828125 -1.28125,1.71875 -1.828125,2.625 v 0.09375 L 1.3125,0.15625 1.515625,0.109375 c 0.390625,-1 0.90625,-1.8125 1.40625,-2.578125 h 0.09375 c 0.859375,1.671875 1.296875,2.625 1.953125,2.625 0.546875,0 1.203125,-0.71875 1.65625,-1.21875 l -0.09375,-0.25 H 6.421875 c -0.25,0.21875 -0.609375,0.5 -0.921875,0.5 -0.5625,0 -1.328125,-1.375 -1.859375,-2.546875 0.671875,-0.78125 1.5,-1.625 2.234375,-2.125 C 5.890625,-5.5 5.90625,-5.515625 5.90625,-5.5625 c 0,0 -0.03125,-0.03125 -0.03125,-0.046875 z m 0,0"
             id="path26" />
        </g>
      </g>
      <g
         fill="#000000"
         fill-opacity="1"
         id="g16"
         transform="matrix(0.47037,0,0,0.47037,-1.07709,-0.930099)">
        <g
           id="use15"
           transform="translate(50.067001,8.493)">
          <path
             d="M 4.421875,0.03125 C 4.40625,-0.171875 4.40625,-0.265625 4.40625,-0.390625 c 0,-0.125 0,-0.21875 0.015625,-0.4375 l -3.265625,0.09375 1.71875,-1.8125 c 0.921875,-0.984375 1.203125,-1.5 1.203125,-2.203125 0,-1.09375 -0.734375,-1.765625 -1.9375,-1.765625 -0.6875,0 -1.140625,0.1875 -1.609375,0.671875 L 0.375,-4.5625 H 0.640625 L 0.765625,-5 c 0.15625,-0.546875 0.484375,-0.78125 1.125,-0.78125 0.8125,0 1.328125,0.5 1.328125,1.3125 0,0.703125 -0.390625,1.40625 -1.453125,2.546875 L 0.15625,-0.21875 v 0.25 C 0.84375,0.015625 1.5625,0 2.265625,0 c 0.71875,0 1.4375,0.015625 2.15625,0.03125 z m 0,0"
             id="path27" />
        </g>
      </g>
      <g
         fill="#000000"
         fill-opacity="1"
         id="g17"
         transform="matrix(0.47037,0,0,0.47037,-1.07709,-0.930099)">
        <g
           id="use16"
           transform="translate(55.292,13.194)">
          <path
             d="M 3.9375,-9.78125 C 1.96875,-8.5 0.78125,-6.28125 0.78125,-3.5 c 0,2.546875 1.21875,4.96875 3.125,6.265625 L 4.0625,2.53125 C 2.265625,0.984375 1.953125,-0.53125 1.953125,-3.546875 1.953125,-6.5625 2.3125,-8.140625 4.0625,-9.5625 Z m 0,0"
             id="path28" />
        </g>
      </g>
      <g
         fill="#000000"
         fill-opacity="1"
         id="g18"
         transform="matrix(0.47037,0,0,0.47037,-1.07709,-0.930099)">
        <g
           id="use17"
           transform="translate(59.772999,13.194)">
          <path
             d="m 5.46875,-5.984375 c -0.03125,-0.03125 -0.046875,-0.03125 -0.078125,-0.03125 -0.046875,0 -0.0625,0 -0.078125,0.03125 -0.578125,0.65625 -1.328125,1.5625 -1.796875,2.1875 L 3.4375,-3.8125 C 3.0625,-4.53125 2.53125,-5.46875 2.25,-5.765625 c -0.171875,-0.1875 -0.46875,-0.25 -0.703125,-0.25 -0.421875,0 -1.0625,0.484375 -1.515625,0.828125 l 0.171875,0.234375 c 0.234375,-0.15625 0.5625,-0.3125 0.828125,-0.3125 0.640625,0 1.265625,1.375 1.75,2.375 -0.625,0.828125 -1.28125,1.71875 -1.828125,2.625 v 0.09375 L 1.3125,0.15625 1.515625,0.109375 c 0.390625,-1 0.90625,-1.8125 1.40625,-2.578125 h 0.09375 c 0.859375,1.671875 1.296875,2.625 1.953125,2.625 0.546875,0 1.203125,-0.71875 1.65625,-1.21875 l -0.09375,-0.25 H 6.421875 c -0.25,0.21875 -0.609375,0.5 -0.921875,0.5 -0.5625,0 -1.328125,-1.375 -1.859375,-2.546875 0.671875,-0.78125 1.5,-1.625 2.234375,-2.125 C 5.890625,-5.5 5.90625,-5.515625 5.90625,-5.5625 c 0,0 -0.03125,-0.03125 -0.03125,-0.046875 z m 0,0"
             id="path29" />
        </g>
      </g>
      <g
         fill="#000000"
         fill-opacity="1"
         id="g19"
         transform="matrix(0.47037,0,0,0.47037,-1.07709,-0.930099)">
        <g
           id="use18"
           transform="translate(69.463997,13.194)">
          <path
             d="M 7.890625,-3.140625 V -3.875 H 4.71875 V -7.046875 H 3.984375 V -3.875 H 0.8125 v 0.734375 H 3.984375 V 0.03125 H 4.71875 v -3.171875 z m 0,0"
             id="path30" />
        </g>
      </g>
      <g
         fill="#000000"
         fill-opacity="1"
         id="g20"
         transform="matrix(0.47037,0,0,0.47037,-1.07709,-0.930099)">
        <g
           id="use19"
           transform="translate(81.005997,13.194)">
          <path
             d="m 5.421875,0.03125 v -0.375 l -0.6875,-0.046875 C 4.03125,-0.421875 3.90625,-0.5625 3.90625,-1.25 v -7.671875 l -0.1875,-0.0625 C 2.875,-8.546875 1.953125,-8.15625 0.78125,-7.75 L 0.875,-7.1875 H 1 c 0.5625,-0.265625 1.140625,-0.515625 1.703125,-0.765625 0.078125,0 0.109375,0.109375 0.109375,0.421875 V -1.25 c 0,0.6875 -0.140625,0.828125 -0.84375,0.859375 L 1.25,-0.34375 v 0.375 C 1.953125,0.015625 2.671875,0 3.375,0 4.046875,0 4.734375,0.015625 5.421875,0.03125 Z m 0,0"
             id="path31" />
        </g>
      </g>
      <g
         fill="#000000"
         fill-opacity="1"
         id="g21"
         transform="matrix(0.47037,0,0,0.47037,-1.07709,-0.930099)">
        <g
           id="use20"
           transform="translate(87.482002,13.194)">
          <path
             d="m 0.546875,-9.78125 -0.125,0.21875 c 1.75,1.421875 2.109375,3 2.109375,6.015625 0,3.015625 -0.3125,4.53125 -2.109375,6.078125 l 0.15625,0.234375 c 1.890625,-1.296875 3.125,-3.71875 3.125,-6.265625 0,-2.78125 -1.1875,-5 -3.15625,-6.28125 z m 0,0"
             id="path32" />
        </g>
        <g
           id="use21"
           transform="translate(91.963181,13.194)">
          <path
             d="m 0.546875,-9.78125 -0.125,0.21875 c 1.75,1.421875 2.109375,3 2.109375,6.015625 0,3.015625 -0.3125,4.53125 -2.109375,6.078125 l 0.15625,0.234375 c 1.890625,-1.296875 3.125,-3.71875 3.125,-6.265625 0,-2.78125 -1.1875,-5 -3.15625,-6.28125 z m 0,0"
             id="path33" />
        </g>
      </g>
    </g>
    <g
       inkscape:label=""
       transform="translate(227.69383,234.82807)"
       id="g4">
      <g
         fill="#000000"
         fill-opacity="1"
         id="g2"
         transform="matrix(0.47037,0,0,0.47037,-0.952147,-0.903758)">
        <g
           id="use1"
           transform="translate(1.993,7.9369998)">
          <path
             d="m 5.46875,-5.984375 c -0.03125,-0.03125 -0.046875,-0.03125 -0.078125,-0.03125 -0.046875,0 -0.0625,0 -0.078125,0.03125 -0.578125,0.65625 -1.328125,1.5625 -1.796875,2.1875 L 3.4375,-3.8125 C 3.0625,-4.53125 2.53125,-5.46875 2.25,-5.765625 c -0.171875,-0.1875 -0.46875,-0.25 -0.703125,-0.25 -0.421875,0 -1.0625,0.484375 -1.515625,0.828125 l 0.171875,0.234375 c 0.234375,-0.15625 0.5625,-0.3125 0.828125,-0.3125 0.640625,0 1.265625,1.375 1.75,2.375 -0.625,0.828125 -1.28125,1.71875 -1.828125,2.625 v 0.09375 L 1.3125,0.15625 1.515625,0.109375 c 0.390625,-1 0.90625,-1.8125 1.40625,-2.578125 h 0.09375 c 0.859375,1.671875 1.296875,2.625 1.953125,2.625 0.546875,0 1.203125,-0.71875 1.65625,-1.21875 l -0.09375,-0.25 H 6.421875 c -0.25,0.21875 -0.609375,0.5 -0.921875,0.5 -0.5625,0 -1.328125,-1.375 -1.859375,-2.546875 0.671875,-0.78125 1.5,-1.625 2.234375,-2.125 C 5.890625,-5.5 5.90625,-5.515625 5.90625,-5.5625 c 0,0 -0.03125,-0.03125 -0.03125,-0.046875 z m 0,0"
             id="path4" />
        </g>
      </g>
    </g>
    <g
       inkscape:label=""
       transform="translate(118.70733,169.26588)"
       id="g7">
      <g
         fill="#000000"
         fill-opacity="1"
         id="g6"
         transform="matrix(0.47037,0,0,0.47037,-0.834555,-0.88218)">
        <g
           id="g5"
           transform="translate(1.993,7.9380002)">
          <path
             d="m 1.25,2.359375 c 0.359375,0.359375 1.046875,0.65625 1.65625,0.65625 1.375,0 2.71875,-0.703125 3.1875,-2.375 0.28125,-1.234375 0.078125,-3.984375 0.265625,-6.625 L 6.203125,-6.03125 5.1875,-5.546875 c 0.0625,0.890625 0.09375,1.828125 0.09375,2.765625 0,0.46875 -0.015625,0.921875 -0.015625,1.375 -0.484375,0.296875 -1.125,0.6875 -1.75,0.6875 -0.296875,0 -0.609375,-0.09375 -0.8125,-0.34375 C 2.5,-1.328125 2.390625,-1.71875 2.34375,-2.921875 c 0,-0.75 0.046875,-1.515625 0.046875,-2.234375 0,-0.484375 -0.25,-0.90625 -0.8125,-0.90625 -0.59375,0 -1.609375,0.734375 -1.796875,0.875 l 0.140625,0.234375 C 0.21875,-5.109375 0.625,-5.3125 0.84375,-5.3125 c 0.53125,0 0.59375,0.578125 0.59375,1.5 0,0.65625 -0.046875,1.203125 -0.046875,1.78125 0,0.859375 0.09375,2.140625 1.34375,2.140625 0.828125,0 1.703125,-0.546875 2.4375,-1 L 5.25,-0.828125 c -0.015625,0.40625 -0.03125,0.84375 -0.109375,1.265625 -0.125,0.734375 -0.4375,2.046875 -1.828125,2.046875 -0.578125,0 -1.078125,-0.5 -1.34375,-1 H 1.796875 l -0.5625,0.734375 z m 0,0"
             id="path5" />
        </g>
      </g>
    </g>
    <ellipse
       style="fill:#0000ff;fill-opacity:0;stroke:#000000;stroke-width:0.416"
       id="path6"
       cx="114.09525"
       cy="231.20079"
       rx="2.1286426"
       ry="1.9157784" />
  </g>
</svg>
