<?xml version="1.0" encoding="UTF-8" standalone="no"?>
<!-- Created with Inkscape (http://www.inkscape.org/) -->

<svg
   width="150mm"
   height="90mm"
   viewBox="0 0 240 120"
   version="1.1"
   id="svg8"
   inkscape:version="1.3 (0e150ed, 2023-07-21)"
   sodipodi:docname="tikz.svg"
   xmlns:inkscape="http://www.inkscape.org/namespaces/inkscape"
   xmlns:sodipodi="http://sodipodi.sourceforge.net/DTD/sodipodi-0.dtd"
   xmlns="http://www.w3.org/2000/svg"
   xmlns:svg="http://www.w3.org/2000/svg"
   xmlns:rdf="http://www.w3.org/1999/02/22-rdf-syntax-ns#"
   xmlns:cc="http://creativecommons.org/ns#"
   xmlns:dc="http://purl.org/dc/elements/1.1/">
  <sodipodi:namedview
     id="base"
     pagecolor="#ffffff"
     bordercolor="#666666"
     borderopacity="1.0"
     inkscape:pageopacity="0.0"
     inkscape:pageshadow="2"
     inkscape:zoom="0.99437388"
     inkscape:cx="284.6012"
     inkscape:cy="183.02975"
     inkscape:document-units="mm"
     inkscape:current-layer="layer1"
     showgrid="false"
     showborder="true"
     width="200mm"
     showguides="true"
     inkscape:guide-bbox="true"
     inkscape:window-width="2520"
     inkscape:window-height="995"
     inkscape:window-x="20"
     inkscape:window-y="65"
     inkscape:window-maximized="1"
     inkscape:showpageshadow="2"
     inkscape:pagecheckerboard="0"
     inkscape:deskcolor="#d1d1d1">
    <inkscape:grid
       type="xygrid"
       id="grid815"
       units="mm"
       spacingx="10"
       spacingy="10"
       empspacing="4"
       dotted="false"
       originx="0"
       originy="0"
       visible="false" />
  </sodipodi:namedview>
  <defs
     id="defs2" />
  <metadata
     id="metadata5">
    <rdf:RDF>
      <cc:Work
         rdf:about="">
        <dc:format>image/svg+xml</dc:format>
        <dc:type
           rdf:resource="http://purl.org/dc/dcmitype/StillImage" />
        <dc:title />
      </cc:Work>
    </rdf:RDF>
  </metadata>
  <g
     inkscape:label="Layer 1"
     inkscape:groupmode="layer"
     id="layer1"
     transform="translate(0, -177)">
    <path
       style="fill:#000000;fill-opacity:0;stroke:#000000;stroke-width:0.416"
       d="m 25.117983,231.41365 161.351107,0.85146"
       id="path9" />
    <path
       style="fill:#000000;fill-opacity:0;stroke:#000000;stroke-width:0.416"
       d="m 102.60058,171.81166 1.27718,130.69866 v 0"
       id="path10" />
    <path
       d="m 65.667102,219.15442 c -1.072791,0.002 -2.131467,0.0315 -3.175,0.0877 -1.043532,0.0561 -2.071957,0.13792 -3.084049,0.24308 -1.012092,0.10516 -2.008017,0.23409 -2.986484,0.38282 -0.978468,0.14874 -1.939644,0.31751 -2.882305,0.50436 -0.942661,0.18686 -1.866838,0.39151 -2.77151,0.61103 -0.904673,0.21951 -1.789602,0.45359 -2.654102,0.70031 -0.8645,0.24673 -1.707932,0.50627 -2.530078,0.77474 -0.822146,0.26847 -1.622658,0.54619 -2.400267,0.83095 -0.777609,0.28477 -1.532952,0.5767 -2.263841,0.8723 -1.461778,0.5912 -2.827665,1.1982 -4.089466,1.8 -1.261802,0.60179 -2.419197,1.19817 -3.463561,1.76692 -1.044365,0.56874 -1.975275,1.10951 -2.78474,1.60155 -0.809465,0.49204 -1.49755,0.93553 -2.054655,1.30721 -1.11421,0.74336 -1.705736,1.2022 -1.705736,1.2022 l 76.427372,0.20919 c -0.75492,-0.55132 -1.51098,-1.12312 -2.26384,-1.63298 -1.245325,-0.84337 -2.487765,-1.63039 -3.725661,-2.36471 -1.237896,-0.73432 -2.470924,-1.41567 -3.699206,-2.04639 -1.228281,-0.63072 -2.451301,-1.21119 -3.667786,-1.74377 -1.216485,-0.53257 -2.426421,-1.01697 -3.628926,-1.45686 -1.202505,-0.43989 -2.397934,-0.83466 -3.584277,-1.18732 -1.186343,-0.35266 -2.36419,-0.66342 -3.532188,-0.93431 -1.167998,-0.27089 -2.326012,-0.50244 -3.473483,-0.69701 -1.14747,-0.19457 -2.284231,-0.35254 -3.408991,-0.47625 -1.12476,-0.12371 -2.23719,-0.21289 -3.337057,-0.2712 -1.099867,-0.0583 -2.187371,-0.0851 -3.260163,-0.0835 z"
       style="fill-opacity:0;stroke:#000000;stroke-width:0.416"
       id="path28" />
    <path
       d="m 103.24868,232.04873 c 0.49384,0.36063 0.98629,0.68945 1.48084,1.06825 0.62529,0.47895 1.24972,0.94275 1.87358,1.39154 0.62387,0.4488 1.24719,0.88258 1.86945,1.30225 0.62226,0.41967 1.24339,0.82515 1.86366,1.21626 0.62027,0.3911 1.2397,0.76783 1.85787,1.13109 0.61817,0.36326 1.23549,0.71312 1.85126,1.04924 0.61576,0.33612 1.22997,0.6585 1.84299,0.96821 0.61301,0.3097 1.22479,0.60644 1.83472,0.89049 0.60992,0.28404 1.21801,0.5554 1.82479,0.81442 0.60679,0.25901 1.21232,0.50533 1.81571,0.74 0.60338,0.23468 1.20463,0.45773 1.80412,0.6689 0.5995,0.21118 1.19704,0.41102 1.79256,0.59945 0.59551,0.18843 1.189,0.36545 1.78015,0.53165 0.59114,0.16619 1.1804,0.32165 1.76692,0.46633 0.58652,0.14468 1.17031,0.27858 1.75203,0.40266 0.58173,0.12407 1.16137,0.23805 1.73799,0.3423 0.57661,0.10426 1.1502,0.19879 1.72144,0.2836 0.57124,0.0848 1.13932,0.16043 1.70491,0.22655 0.56559,0.0661 1.12868,0.12275 1.68837,0.17115 0.55969,0.0484 1.11592,0.0877 1.66936,0.11907 0.55344,0.0313 1.10409,0.0546 1.65116,0.0694 0.54708,0.0148 1.09095,0.0215 1.63133,0.0207 0.54037,-7.7e-4 1.07725,-0.009 1.61065,-0.0248 0.53339,-0.0158 1.06296,-0.0393 1.58915,-0.0695 0.52619,-0.0302 1.04901,-0.0671 1.56766,-0.11079 0.51864,-0.0436 1.03361,-0.094 1.5445,-0.15048 0.51089,-0.0565 1.01769,-0.11907 1.52053,-0.18769 1.00567,-0.13725 1.99472,-0.29808 2.96664,-0.47956 0.97192,-0.18147 1.92643,-0.3836 2.86246,-0.60358 0.93604,-0.21998 1.85365,-0.45746 2.75167,-0.71024 0.89802,-0.25278 1.77721,-0.52051 2.63508,-0.80037 0.85788,-0.27984 1.69464,-0.57191 2.51024,-0.87312 0.81559,-0.30121 1.60923,-0.61167 2.38042,-0.92852 0.77119,-0.31686 1.52017,-0.63978 2.24482,-0.96656 0.72466,-0.32678 1.42577,-0.65706 2.10179,-0.98805 0.67602,-0.331 1.32694,-0.66271 1.95213,-0.99219 0.62518,-0.32948 1.22445,-0.65662 1.79668,-0.97896 0.57224,-0.32233 1.11744,-0.63987 1.63463,-0.94919 0.5172,-0.30932 1.00606,-0.61064 1.46596,-0.90124 0.45989,-0.29059 0.89082,-0.57046 1.2915,-0.83674 0.80134,-0.53258 1.48187,-1.01061 2.03315,-1.41139 0.55129,-0.40078 0.97333,-0.72424 1.2576,-0.94754 0.28427,-0.2233 0.43078,-0.34644 0.43078,-0.34644 z"
       style="fill:#ff0000;fill-opacity:0;stroke:#000000;stroke-width:0.416"
       id="path29" />
    <path
       style="fill:#ff0000;fill-opacity:0;stroke:#000000;stroke-width:0.416"
       d="m 10.217485,256.53163 c 40.018482,25.54372 47.255865,-30.22672 87.700077,-1.27718 40.444208,28.94954 157.093828,10.64321 92.808818,-20.43497 -64.28501,-31.07818 -43.85004,37.46411 -90.25445,-1.70292 -46.404407,-39.16702 -89.402988,1.70292 -89.402988,1.70292 0,0 -17.4548698,12.34612 -0.851457,21.71215 z"
       id="path1" />
    <path
       style="fill:#ff0000;fill-opacity:0;stroke:#000000;stroke-width:0.416"
       d="m 226.91331,233.96802 c 0,0 -98.76902,8.08884 -97.91757,-25.11798 0.85146,-33.20683 -85.145701,-26.39517 -85.145701,-26.39517 z"
       id="path2" />
  </g>
</svg>
