<?xml version="1.0" encoding="UTF-8" standalone="no"?>
<!-- Created with Inkscape (http://www.inkscape.org/) -->

<svg
   width="150mm"
   height="90mm"
   viewBox="0 0 240 120"
   version="1.1"
   id="svg8"
   inkscape:version="1.3 (0e150ed, 2023-07-21)"
   sodipodi:docname="tikz3.svg"
   xmlns:inkscape="http://www.inkscape.org/namespaces/inkscape"
   xmlns:sodipodi="http://sodipodi.sourceforge.net/DTD/sodipodi-0.dtd"
   xmlns="http://www.w3.org/2000/svg"
   xmlns:svg="http://www.w3.org/2000/svg"
   xmlns:rdf="http://www.w3.org/1999/02/22-rdf-syntax-ns#"
   xmlns:cc="http://creativecommons.org/ns#"
   xmlns:dc="http://purl.org/dc/elements/1.1/">
  <sodipodi:namedview
     id="base"
     pagecolor="#ffffff"
     bordercolor="#666666"
     borderopacity="1.0"
     inkscape:pageopacity="0.0"
     inkscape:pageshadow="2"
     inkscape:zoom="0.99437388"
     inkscape:cx="284.6012"
     inkscape:cy="182.02409"
     inkscape:document-units="mm"
     inkscape:current-layer="layer1"
     showgrid="false"
     showborder="true"
     width="200mm"
     showguides="true"
     inkscape:guide-bbox="true"
     inkscape:window-width="2520"
     inkscape:window-height="995"
     inkscape:window-x="20"
     inkscape:window-y="65"
     inkscape:window-maximized="1"
     inkscape:showpageshadow="2"
     inkscape:pagecheckerboard="0"
     inkscape:deskcolor="#d1d1d1">
    <inkscape:grid
       type="xygrid"
       id="grid815"
       units="mm"
       spacingx="10"
       spacingy="10"
       empspacing="4"
       dotted="false"
       originx="0"
       originy="0"
       visible="false" />
  </sodipodi:namedview>
  <defs
     id="defs2" />
  <metadata
     id="metadata5">
    <rdf:RDF>
      <cc:Work
         rdf:about="">
        <dc:format>image/svg+xml</dc:format>
        <dc:type
           rdf:resource="http://purl.org/dc/dcmitype/StillImage" />
        <dc:title />
      </cc:Work>
    </rdf:RDF>
  </metadata>
  <g
     inkscape:label="Layer 1"
     inkscape:groupmode="layer"
     id="layer1"
     transform="translate(0, -177)">
    <path
       style="fill:#ff0000;fill-opacity:0;stroke:#000000;stroke-width:0.416"
       d="m 99.194746,180.32623 0.851464,107.70932"
       id="path1" />
    <path
       style="fill:#ff0000;fill-opacity:0;stroke:#000000;stroke-width:0.416"
       d="M 184.34045,230.13647 15.751956,229.71074"
       id="path2" />
    <path
       style="fill:#ff0000;fill-opacity:0;stroke:#000000;stroke-width:0.416"
       d="M 12.346128,204.59275 195.4094,205.01848"
       id="path3" />
    <path
       style="fill:#ff0000;fill-opacity:0;stroke:#000000;stroke-width:0.416"
       d="M 122.18409,203.7413 60.027722,277.39233 151.55936,169.68301"
       id="path4" />
    <path
       style="fill:#ff0000;fill-opacity:0;stroke:#000000;stroke-width:0.416"
       d="M 36.186925,177.77186 167.73704,286.33263"
       id="path5" />
    <g
       inkscape:label=""
       transform="translate(22.492679,292.90416)"
       id="g5">
      <g
         fill="#000000"
         fill-opacity="1"
         id="g23"
         transform="matrix(0.47037,0,0,0.47037,-1.06974,-0.959908)">
        <g
           id="use22"
           transform="translate(1.993,11.822)">
          <path
             d="M 4.125,-5.640625 2.359375,-5.5625 v -0.5 c 0,-0.546875 0.03125,-1.015625 0.140625,-1.84375 L 2.34375,-8.046875 c -0.3125,0.203125 -0.703125,0.359375 -1.09375,0.5 0.03125,0.390625 0.046875,0.625 0.046875,1.015625 V -5.625 L 0.28125,-5.171875 v 0.28125 l 0.984375,-0.0625 v 3.734375 c 0,0.953125 0.4375,1.375 1.421875,1.375 C 2.984375,0.15625 3.296875,0.09375 3.375,0 L 4,-0.6875 3.828125,-0.90625 c -0.3125,0.1875 -0.515625,0.25 -0.765625,0.25 -0.5,0 -0.703125,-0.265625 -0.703125,-0.890625 v -3.40625 h 1.65625 z m 0,0"
             id="path80" />
        </g>
      </g>
      <g
         fill="#000000"
         fill-opacity="1"
         id="g24"
         transform="matrix(0.47037,0,0,0.47037,-1.06974,-0.959908)">
        <g
           id="use23"
           transform="translate(6.0856419,11.822)">
          <path
             d="m 6.65625,-3.0625 c 0,-1.75 -1.265625,-3.015625 -3.046875,-3.015625 -1.890625,0 -3.1875,1.34375 -3.1875,3.265625 0,1.828125 1.140625,3.078125 2.8125,3.078125 2,0 3.421875,-1.390625 3.421875,-3.328125 z m -1.203125,0.46875 c 0,1.5 -0.65625,2.421875 -1.703125,2.421875 -1.28125,0 -2.125,-1.234375 -2.125,-3.078125 0,-1.5625 0.609375,-2.390625 1.75,-2.390625 1.203125,0 2.078125,1.28125 2.078125,3.046875 z m 0,0"
             id="path81" />
        </g>
      </g>
      <g
         fill="#000000"
         fill-opacity="1"
         id="g27"
         transform="matrix(0.47037,0,0,0.47037,-1.06974,-0.959908)">
        <g
           id="use24"
           transform="translate(16.394957,11.822)">
          <path
             d="m 5.796875,-3.609375 c 0,-1.5 -0.953125,-2.46875 -2.40625,-2.46875 -0.46875,0 -1.03125,0.171875 -1.5625,0.484375 -1.0625,0.609375 -1.484375,1.40625 -1.484375,2.75 0,0.828125 0.171875,1.515625 0.53125,2.015625 0.515625,0.6875 1.390625,1.09375 2.359375,1.09375 0.484375,0 0.96875,-0.109375 1.5,-0.34375 0.34375,-0.140625 0.609375,-0.3125 0.671875,-0.390625 l 0.25,-0.4375 -0.171875,-0.125 c -0.828125,0.484375 -1.125,0.609375 -1.671875,0.609375 -0.84375,0 -1.546875,-0.375 -1.90625,-1.015625 -0.25,-0.421875 -0.34375,-0.796875 -0.359375,-1.546875 H 3.4375 c 0.890625,0 1.453125,-0.03125 2.34375,-0.171875 0.015625,-0.1875 0.015625,-0.296875 0.015625,-0.453125 z m -1.140625,0.15625 -1.453125,0.03125 c -0.59375,0 -0.9375,-0.015625 -1.640625,-0.078125 0,-0.609375 0.0625,-0.890625 0.21875,-1.234375 0.28125,-0.5625 0.828125,-0.90625 1.453125,-0.90625 0.4375,0 0.765625,0.15625 1,0.515625 0.28125,0.421875 0.421875,0.796875 0.421875,1.671875 z m 0,0"
             id="path82" />
        </g>
        <g
           id="use25"
           transform="translate(22.598677,11.822)">
          <path
             d="m 6.09375,0.03125 v -0.375 l -0.5,-0.03125 C 5.28125,-0.390625 5.234375,-0.5 5.234375,-1.125 V -3.5 c 0,-1.890625 -0.546875,-2.578125 -2.046875,-2.578125 -0.5625,0 -1.078125,0.140625 -1.5625,0.4375 L 0.9375,-5.21875 V -4.375 L 1.265625,-4.28125 1.4375,-4.6875 c 0.265625,-0.609375 0.40625,-0.703125 1,-0.703125 1.21875,0 1.71875,0.484375 1.765625,1.65625 L 2.921875,-3.5 c -1.765625,0.328125 -2.5,0.9375 -2.5,2.0625 0,1.015625 0.59375,1.59375 1.625,1.59375 C 2.28125,0.15625 2.5,0.109375 2.59375,0.046875 L 4.203125,-1.0625 4.125,0.03125 C 4.46875,0.015625 4.8125,0 5.140625,0 5.46875,0 5.78125,0.015625 6.09375,0.03125 Z M 4.203125,-1.609375 C 3.828125,-1.078125 3,-0.578125 2.5,-0.578125 c -0.515625,0 -0.96875,-0.484375 -0.96875,-1.046875 0,-0.46875 0.25,-0.921875 0.640625,-1.171875 0.328125,-0.1875 1.046875,-0.375 2.03125,-0.515625 z m 0,0"
             id="path83" />
        </g>
        <g
           id="use26"
           transform="translate(29.074377,11.822)">
          <path
             d="m 5.34375,-0.59375 -0.125,-0.203125 c -0.484375,0.265625 -0.890625,0.375 -1.359375,0.375 -1.4375,0 -2.375,-1.109375 -2.375,-2.8125 0,-1.390625 0.640625,-2.171875 1.8125,-2.171875 0.5625,0 1.1875,0.265625 1.421875,0.59375 l 0.09375,0.78125 h 0.359375 c 0,-0.59375 0.0625,-1.125 0.171875,-1.59375 -0.515625,-0.3125 -0.96875,-0.453125 -1.5,-0.453125 -0.625,0 -1.34375,0.25 -2.125,0.734375 -0.90625,0.578125 -1.375,1.484375 -1.375,2.625 0,1.75 1.21875,2.984375 2.953125,2.984375 0.6875,0 1.65625,-0.25 1.78125,-0.453125 z m 0,0"
             id="path84" />
        </g>
        <g
           id="use27"
           transform="translate(34.824799,11.822)">
          <path
             d="m 7.40625,0.03125 v -0.375 L 6.875,-0.390625 C 6.4375,-0.421875 6.40625,-0.5 6.40625,-1.328125 v -2.5 c 0,-1.515625 -0.71875,-2.25 -2.171875,-2.25 -0.484375,0 -0.75,0.09375 -1.015625,0.328125 l -0.984375,0.859375 v -4.40625 l -0.125,-0.109375 c -0.5625,0.21875 -1,0.328125 -2.015625,0.484375 V -8.5625 H 0.8125 c 0.234375,0 0.328125,0.140625 0.328125,0.53125 v 6.703125 c 0,0.828125 -0.046875,0.90625 -0.484375,0.9375 L 0.078125,-0.34375 v 0.375 C 0.609375,0.015625 1.15625,0 1.6875,0 2.21875,0 2.765625,0.015625 3.296875,0.03125 v -0.375 L 2.703125,-0.390625 C 2.265625,-0.421875 2.234375,-0.5 2.234375,-1.328125 V -4.0625 c 0,-0.59375 0.84375,-1.21875 1.640625,-1.21875 0.859375,0 1.4375,0.640625 1.4375,1.640625 V 0.03125 C 5.640625,0.015625 6,0 6.328125,0 c 0.375,0 0.71875,0.015625 1.078125,0.03125 z m 0,0"
             id="path85" />
        </g>
      </g>
      <g
         fill="#000000"
         fill-opacity="1"
         id="g32"
         transform="matrix(0.47037,0,0,0.47037,-1.06974,-0.959908)">
        <g
           id="use28"
           transform="translate(45.600365,11.822)">
          <path
             d="m 7.171875,-3.515625 c 0,-1.4375 -1.1875,-2.5625 -2.6875,-2.5625 -0.484375,0 -0.953125,0.125 -1.15625,0.328125 l -1.0625,0.96875 V -6.015625 L 2.15625,-6.078125 C 1.484375,-5.796875 0.8125,-5.625 0.125,-5.546875 V -5.1875 h 0.484375 c 0.515625,0 0.5625,0.09375 0.5625,0.953125 V 2.28125 c 0,0.8125 -0.03125,0.90625 -0.46875,0.9375 L 0.109375,3.25 v 0.390625 c 0.53125,-0.03125 1.0625,-0.046875 1.609375,-0.046875 0.546875,0 1.078125,0.015625 1.625,0.046875 V 3.25 L 2.75,3.21875 C 2.3125,3.1875 2.265625,3.09375 2.265625,2.28125 V -0.171875 C 2.65625,0.0625 3.0625,0.15625 3.65625,0.15625 c 0.375,0 0.703125,-0.078125 0.921875,-0.203125 l 1.46875,-0.96875 c 0.515625,-0.328125 1.125,-1.671875 1.125,-2.5 z m -1.125,0.484375 c 0,1.453125 -0.859375,2.53125 -2.03125,2.53125 -0.71875,0 -1.25,-0.234375 -1.75,-0.765625 V -3.96875 c 0,-0.171875 0.0625,-0.3125 0.234375,-0.53125 0.375,-0.484375 0.90625,-0.734375 1.546875,-0.734375 1.21875,0 2,0.859375 2,2.203125 z m 0,0"
             id="path86" />
        </g>
        <g
           id="use29"
           transform="translate(53.384155,11.822)">
          <path
             d="m 6.65625,-3.0625 c 0,-1.75 -1.265625,-3.015625 -3.046875,-3.015625 -1.890625,0 -3.1875,1.34375 -3.1875,3.265625 0,1.828125 1.140625,3.078125 2.8125,3.078125 2,0 3.421875,-1.390625 3.421875,-3.328125 z m -1.203125,0.46875 c 0,1.5 -0.65625,2.421875 -1.703125,2.421875 -1.28125,0 -2.125,-1.234375 -2.125,-3.078125 0,-1.5625 0.609375,-2.390625 1.75,-2.390625 1.203125,0 2.078125,1.28125 2.078125,3.046875 z m 0,0"
             id="path87" />
        </g>
        <g
           id="use30"
           transform="translate(60.45562,11.822)">
          <path
             d="m 3.515625,0.03125 v -0.375 L 2.921875,-0.390625 C 2.46875,-0.421875 2.4375,-0.5 2.4375,-1.328125 v -4.6875 l -0.125,-0.0625 C 1.65625,-5.796875 0.984375,-5.625 0.296875,-5.546875 V -5.1875 H 0.78125 c 0.515625,0 0.5625,0.09375 0.5625,0.953125 v 2.90625 c 0,0.828125 -0.03125,0.90625 -0.46875,0.9375 L 0.265625,-0.34375 v 0.375 C 0.8125,0.015625 1.34375,0 1.890625,0 2.4375,0 2.96875,0.015625 3.515625,0.03125 Z M 2.53125,-8.25 c 0,-0.375 -0.25,-0.65625 -0.625,-0.65625 C 1.5,-8.90625 1.25,-8.640625 1.25,-8.25 c 0,0.390625 0.25,0.640625 0.640625,0.640625 0.390625,0 0.640625,-0.25 0.640625,-0.640625 z m 0,0"
             id="path88" />
        </g>
        <g
           id="use31"
           transform="translate(64.22448,11.822)">
          <path
             d="m 7.40625,0.03125 v -0.375 L 6.875,-0.390625 C 6.4375,-0.421875 6.40625,-0.5 6.40625,-1.328125 v -2.5 c 0,-1.515625 -0.71875,-2.25 -2.171875,-2.25 -0.484375,0 -0.75,0.09375 -1.015625,0.328125 l -0.984375,0.859375 v -1.125 l -0.125,-0.0625 C 1.453125,-5.796875 0.78125,-5.625 0.09375,-5.546875 V -5.1875 H 0.5625 c 0.53125,0 0.578125,0.09375 0.578125,0.953125 v 2.90625 c 0,0.828125 -0.046875,0.90625 -0.484375,0.9375 L 0.078125,-0.34375 v 0.375 C 0.609375,0.015625 1.15625,0 1.6875,0 2.21875,0 2.765625,0.015625 3.296875,0.03125 v -0.375 L 2.703125,-0.390625 C 2.265625,-0.421875 2.234375,-0.5 2.234375,-1.328125 V -4.0625 c 0,-0.59375 0.84375,-1.21875 1.640625,-1.21875 0.859375,0 1.4375,0.640625 1.4375,1.640625 V 0.03125 C 5.640625,0.015625 6,0 6.328125,0 c 0.375,0 0.71875,0.015625 1.078125,0.03125 z m 0,0"
             id="path89" />
        </g>
        <g
           id="use32"
           transform="translate(71.762192,11.822)">
          <path
             d="M 4.125,-5.640625 2.359375,-5.5625 v -0.5 c 0,-0.546875 0.03125,-1.015625 0.140625,-1.84375 L 2.34375,-8.046875 c -0.3125,0.203125 -0.703125,0.359375 -1.09375,0.5 0.03125,0.390625 0.046875,0.625 0.046875,1.015625 V -5.625 L 0.28125,-5.171875 v 0.28125 l 0.984375,-0.0625 v 3.734375 c 0,0.953125 0.4375,1.375 1.421875,1.375 C 2.984375,0.15625 3.296875,0.09375 3.375,0 L 4,-0.6875 3.828125,-0.90625 c -0.3125,0.1875 -0.515625,0.25 -0.765625,0.25 -0.5,0 -0.703125,-0.265625 -0.703125,-0.890625 v -3.40625 h 1.65625 z m 0,0"
             id="path90" />
        </g>
      </g>
      <g
         fill="#000000"
         fill-opacity="1"
         id="g33"
         transform="matrix(0.47037,0,0,0.47037,-1.06974,-0.959908)">
        <g
           id="use33"
           transform="translate(79.222,11.822)">
          <path
             d="M 3.9375,-9.78125 C 1.96875,-8.5 0.78125,-6.28125 0.78125,-3.5 c 0,2.546875 1.21875,4.96875 3.125,6.265625 L 4.0625,2.53125 C 2.265625,0.984375 1.953125,-0.53125 1.953125,-3.546875 1.953125,-6.5625 2.3125,-8.140625 4.0625,-9.5625 Z m 0,0"
             id="path91" />
        </g>
      </g>
      <g
         fill="#000000"
         fill-opacity="1"
         id="g34"
         transform="matrix(0.47037,0,0,0.47037,-1.06974,-0.959908)">
        <g
           id="use34"
           transform="translate(83.703003,11.822)">
          <path
             d="m 5.46875,-5.984375 c -0.03125,-0.03125 -0.046875,-0.03125 -0.078125,-0.03125 -0.046875,0 -0.0625,0 -0.078125,0.03125 -0.578125,0.65625 -1.328125,1.5625 -1.796875,2.1875 L 3.4375,-3.8125 C 3.0625,-4.53125 2.53125,-5.46875 2.25,-5.765625 c -0.171875,-0.1875 -0.46875,-0.25 -0.703125,-0.25 -0.421875,0 -1.0625,0.484375 -1.515625,0.828125 l 0.171875,0.234375 c 0.234375,-0.15625 0.5625,-0.3125 0.828125,-0.3125 0.640625,0 1.265625,1.375 1.75,2.375 -0.625,0.828125 -1.28125,1.71875 -1.828125,2.625 v 0.09375 L 1.3125,0.15625 1.515625,0.109375 c 0.390625,-1 0.90625,-1.8125 1.40625,-2.578125 h 0.09375 c 0.859375,1.671875 1.296875,2.625 1.953125,2.625 0.546875,0 1.203125,-0.71875 1.65625,-1.21875 l -0.09375,-0.25 H 6.421875 c -0.25,0.21875 -0.609375,0.5 -0.921875,0.5 -0.5625,0 -1.328125,-1.375 -1.859375,-2.546875 0.671875,-0.78125 1.5,-1.625 2.234375,-2.125 C 5.890625,-5.5 5.90625,-5.515625 5.90625,-5.5625 c 0,0 -0.03125,-0.03125 -0.03125,-0.046875 z m 0,0"
             id="path92" />
        </g>
      </g>
      <g
         fill="#000000"
         fill-opacity="1"
         id="g35"
         transform="matrix(0.47037,0,0,0.47037,-1.06974,-0.959908)">
        <g
           id="use35"
           transform="translate(90.514999,11.822)">
          <path
             d="m 2.828125,-1.40625 -0.1875,-0.1875 C 2.296875,-1.484375 2.0625,-1.40625 1.375,-1.203125 1.28125,-0.21875 0.953125,0.625 0.203125,1.859375 L 0.390625,2 0.921875,1.765625 C 1.96875,0.40625 2.46875,-0.421875 2.828125,-1.40625 Z m 0,0"
             id="path93" />
        </g>
      </g>
      <g
         fill="#000000"
         fill-opacity="1"
         id="g36"
         transform="matrix(0.47037,0,0,0.47037,-1.06974,-0.959908)">
        <g
           id="use36"
           transform="translate(95.915733,11.822)">
          <path
             d="m 5.421875,0.03125 v -0.375 l -0.6875,-0.046875 C 4.03125,-0.421875 3.90625,-0.5625 3.90625,-1.25 v -7.671875 l -0.1875,-0.0625 C 2.875,-8.546875 1.953125,-8.15625 0.78125,-7.75 L 0.875,-7.1875 H 1 c 0.5625,-0.265625 1.140625,-0.515625 1.703125,-0.765625 0.078125,0 0.109375,0.109375 0.109375,0.421875 V -1.25 c 0,0.6875 -0.140625,0.828125 -0.84375,0.859375 L 1.25,-0.34375 v 0.375 C 1.953125,0.015625 2.671875,0 3.375,0 4.046875,0 4.734375,0.015625 5.421875,0.03125 Z m 0,0"
             id="path94" />
        </g>
      </g>
      <g
         fill="#000000"
         fill-opacity="1"
         id="g37"
         transform="matrix(0.47037,0,0,0.47037,-1.06974,-0.959908)">
        <g
           id="use37"
           transform="translate(102.388,11.822)">
          <path
             d="m 0.546875,-9.78125 -0.125,0.21875 c 1.75,1.421875 2.109375,3 2.109375,6.015625 0,3.015625 -0.3125,4.53125 -2.109375,6.078125 l 0.15625,0.234375 c 1.890625,-1.296875 3.125,-3.71875 3.125,-6.265625 0,-2.78125 -1.1875,-5 -3.15625,-6.28125 z m 0,0"
             id="path95" />
        </g>
      </g>
      <g
         fill="#000000"
         fill-opacity="1"
         id="g38"
         transform="matrix(0.47037,0,0,0.47037,-1.06974,-0.959908)">
        <g
           id="use38"
           transform="translate(110.107,11.822)">
          <path
             d="m 10.46875,-5.578125 v -0.375 c -0.4375,0.03125 -0.84375,0.046875 -1.265625,0.046875 -0.4375,0 -0.84375,-0.015625 -1.28125,-0.046875 v 0.375 L 8.375,-5.5625 c 0.34375,0.015625 0.5,0.1875 0.5,0.453125 0,0.109375 -0.046875,0.25 -0.09375,0.421875 -0.40625,1.15625 -0.828125,2.296875 -1.265625,3.421875 l -1.5,-3.765625 C 5.84375,-5.46875 5.75,-5.71875 5.640625,-6.078125 H 5.34375 L 3.296875,-1.34375 2.203125,-4.921875 c -0.03125,-0.109375 -0.046875,-0.1875 -0.046875,-0.28125 0,-0.21875 0.125,-0.34375 0.484375,-0.359375 L 3.15625,-5.578125 v -0.375 C 2.640625,-5.921875 2.140625,-5.90625 1.625,-5.90625 c -0.53125,0 -1.03125,-0.015625 -1.546875,-0.046875 v 0.375 L 0.4375,-5.5625 c 0.359375,0.03125 0.53125,0.25 0.859375,1.296875 l 1.3125,4.359375 H 3.21875 L 4.5,-2.890625 C 4.734375,-3.4375 5.171875,-4.34375 5.171875,-4.34375 L 6.9375,0.09375 H 7.53125 L 9.296875,-4.4375 C 9.65625,-5.34375 9.84375,-5.53125 10.125,-5.5625 Z m 0,0"
             id="path96" />
        </g>
      </g>
      <g
         fill="#000000"
         fill-opacity="1"
         id="g39"
         transform="matrix(0.47037,0,0,0.47037,-1.06974,-0.959908)">
        <g
           id="use39"
           transform="translate(120.39041,11.822)">
          <path
             d="m 5.796875,-3.609375 c 0,-1.5 -0.953125,-2.46875 -2.40625,-2.46875 -0.46875,0 -1.03125,0.171875 -1.5625,0.484375 -1.0625,0.609375 -1.484375,1.40625 -1.484375,2.75 0,0.828125 0.171875,1.515625 0.53125,2.015625 0.515625,0.6875 1.390625,1.09375 2.359375,1.09375 0.484375,0 0.96875,-0.109375 1.5,-0.34375 0.34375,-0.140625 0.609375,-0.3125 0.671875,-0.390625 l 0.25,-0.4375 -0.171875,-0.125 c -0.828125,0.484375 -1.125,0.609375 -1.671875,0.609375 -0.84375,0 -1.546875,-0.375 -1.90625,-1.015625 -0.25,-0.421875 -0.34375,-0.796875 -0.359375,-1.546875 H 3.4375 c 0.890625,0 1.453125,-0.03125 2.34375,-0.171875 0.015625,-0.1875 0.015625,-0.296875 0.015625,-0.453125 z m -1.140625,0.15625 -1.453125,0.03125 c -0.59375,0 -0.9375,-0.015625 -1.640625,-0.078125 0,-0.609375 0.0625,-0.890625 0.21875,-1.234375 0.28125,-0.5625 0.828125,-0.90625 1.453125,-0.90625 0.4375,0 0.765625,0.15625 1,0.515625 0.28125,0.421875 0.421875,0.796875 0.421875,1.671875 z m 0,0"
             id="path97" />
        </g>
      </g>
      <g
         fill="#000000"
         fill-opacity="1"
         id="g42"
         transform="matrix(0.47037,0,0,0.47037,-1.06974,-0.959908)">
        <g
           id="use40"
           transform="translate(129.83199,11.822)">
          <path
             d="m 5.34375,-0.59375 -0.125,-0.203125 c -0.484375,0.265625 -0.890625,0.375 -1.359375,0.375 -1.4375,0 -2.375,-1.109375 -2.375,-2.8125 0,-1.390625 0.640625,-2.171875 1.8125,-2.171875 0.5625,0 1.1875,0.265625 1.421875,0.59375 l 0.09375,0.78125 h 0.359375 c 0,-0.59375 0.0625,-1.125 0.171875,-1.59375 -0.515625,-0.3125 -0.96875,-0.453125 -1.5,-0.453125 -0.625,0 -1.34375,0.25 -2.125,0.734375 -0.90625,0.578125 -1.375,1.484375 -1.375,2.625 0,1.75 1.21875,2.984375 2.953125,2.984375 0.6875,0 1.65625,-0.25 1.78125,-0.453125 z m 0,0"
             id="path98" />
        </g>
        <g
           id="use41"
           transform="translate(135.5824,11.822)">
          <path
             d="m 6.09375,0.03125 v -0.375 l -0.5,-0.03125 C 5.28125,-0.390625 5.234375,-0.5 5.234375,-1.125 V -3.5 c 0,-1.890625 -0.546875,-2.578125 -2.046875,-2.578125 -0.5625,0 -1.078125,0.140625 -1.5625,0.4375 L 0.9375,-5.21875 V -4.375 L 1.265625,-4.28125 1.4375,-4.6875 c 0.265625,-0.609375 0.40625,-0.703125 1,-0.703125 1.21875,0 1.71875,0.484375 1.765625,1.65625 L 2.921875,-3.5 c -1.765625,0.328125 -2.5,0.9375 -2.5,2.0625 0,1.015625 0.59375,1.59375 1.625,1.59375 C 2.28125,0.15625 2.5,0.109375 2.59375,0.046875 L 4.203125,-1.0625 4.125,0.03125 C 4.46875,0.015625 4.8125,0 5.140625,0 5.46875,0 5.78125,0.015625 6.09375,0.03125 Z M 4.203125,-1.609375 C 3.828125,-1.078125 3,-0.578125 2.5,-0.578125 c -0.515625,0 -0.96875,-0.484375 -0.96875,-1.046875 0,-0.46875 0.25,-0.921875 0.640625,-1.171875 0.328125,-0.1875 1.046875,-0.375 2.03125,-0.515625 z m 0,0"
             id="path99" />
        </g>
        <g
           id="use42"
           transform="translate(142.05811,11.822)">
          <path
             d="m 7.40625,0.03125 v -0.375 L 6.875,-0.390625 C 6.4375,-0.421875 6.40625,-0.5 6.40625,-1.328125 v -2.5 c 0,-1.515625 -0.71875,-2.25 -2.171875,-2.25 -0.484375,0 -0.75,0.09375 -1.015625,0.328125 l -0.984375,0.859375 v -1.125 l -0.125,-0.0625 C 1.453125,-5.796875 0.78125,-5.625 0.09375,-5.546875 V -5.1875 H 0.5625 c 0.53125,0 0.578125,0.09375 0.578125,0.953125 v 2.90625 c 0,0.828125 -0.046875,0.90625 -0.484375,0.9375 L 0.078125,-0.34375 v 0.375 C 0.609375,0.015625 1.15625,0 1.6875,0 2.21875,0 2.765625,0.015625 3.296875,0.03125 v -0.375 L 2.703125,-0.390625 C 2.265625,-0.421875 2.234375,-0.5 2.234375,-1.328125 V -4.0625 c 0,-0.59375 0.84375,-1.21875 1.640625,-1.21875 0.859375,0 1.4375,0.640625 1.4375,1.640625 V 0.03125 C 5.640625,0.015625 6,0 6.328125,0 c 0.375,0 0.71875,0.015625 1.078125,0.03125 z m 0,0"
             id="path100" />
        </g>
      </g>
      <g
         fill="#000000"
         fill-opacity="1"
         id="g51"
         transform="matrix(0.47037,0,0,0.47037,-1.06974,-0.959908)">
        <g
           id="use43"
           transform="translate(152.83366,11.822)">
          <path
             d="m 6.09375,0.03125 v -0.375 l -0.5,-0.03125 C 5.28125,-0.390625 5.234375,-0.5 5.234375,-1.125 V -3.5 c 0,-1.890625 -0.546875,-2.578125 -2.046875,-2.578125 -0.5625,0 -1.078125,0.140625 -1.5625,0.4375 L 0.9375,-5.21875 V -4.375 L 1.265625,-4.28125 1.4375,-4.6875 c 0.265625,-0.609375 0.40625,-0.703125 1,-0.703125 1.21875,0 1.71875,0.484375 1.765625,1.65625 L 2.921875,-3.5 c -1.765625,0.328125 -2.5,0.9375 -2.5,2.0625 0,1.015625 0.59375,1.59375 1.625,1.59375 C 2.28125,0.15625 2.5,0.109375 2.59375,0.046875 L 4.203125,-1.0625 4.125,0.03125 C 4.46875,0.015625 4.8125,0 5.140625,0 5.46875,0 5.78125,0.015625 6.09375,0.03125 Z M 4.203125,-1.609375 C 3.828125,-1.078125 3,-0.578125 2.5,-0.578125 c -0.515625,0 -0.96875,-0.484375 -0.96875,-1.046875 0,-0.46875 0.25,-0.921875 0.640625,-1.171875 0.328125,-0.1875 1.046875,-0.375 2.03125,-0.515625 z m 0,0"
             id="path101" />
        </g>
        <g
           id="use44"
           transform="translate(159.30937,11.822)">
          <path
             d="M 5.0625,-1.921875 C 5.0625,-2.3125 4.96875,-2.609375 4.703125,-2.875 4.359375,-3.21875 3.9375,-3.359375 2.796875,-3.578125 c -1.0625,-0.203125 -1.40625,-0.46875 -1.40625,-1.0625 0,-0.640625 0.453125,-1 1.234375,-1 0.875,0 1.53125,0.453125 1.53125,1.0625 v 0.296875 h 0.359375 c 0.015625,-0.75 0.03125,-1.0625 0.0625,-1.46875 C 3.90625,-5.984375 3.4375,-6.078125 2.90625,-6.078125 c -1.5,0 -2.421875,0.71875 -2.421875,1.875 0,0.625 0.28125,1.0625 0.875,1.34375 0.34375,0.15625 1.03125,0.359375 1.921875,0.546875 0.578125,0.140625 0.828125,0.40625 0.828125,0.90625 0,0.6875 -0.65625,1.1875 -1.578125,1.1875 -0.9375,0 -1.609375,-0.453125 -1.609375,-1.109375 v -0.53125 H 0.53125 c 0,0.90625 -0.03125,1.296875 -0.140625,1.8125 0.671875,0.21875 1.171875,0.3125 1.765625,0.3125 1.703125,0 2.90625,-0.90625 2.90625,-2.1875 z m 0,0"
             id="path102" />
        </g>
        <g
           id="use45"
           transform="translate(164.80077,11.822)">
          <path
             d="M 5.0625,-1.921875 C 5.0625,-2.3125 4.96875,-2.609375 4.703125,-2.875 4.359375,-3.21875 3.9375,-3.359375 2.796875,-3.578125 c -1.0625,-0.203125 -1.40625,-0.46875 -1.40625,-1.0625 0,-0.640625 0.453125,-1 1.234375,-1 0.875,0 1.53125,0.453125 1.53125,1.0625 v 0.296875 h 0.359375 c 0.015625,-0.75 0.03125,-1.0625 0.0625,-1.46875 C 3.90625,-5.984375 3.4375,-6.078125 2.90625,-6.078125 c -1.5,0 -2.421875,0.71875 -2.421875,1.875 0,0.625 0.28125,1.0625 0.875,1.34375 0.34375,0.15625 1.03125,0.359375 1.921875,0.546875 0.578125,0.140625 0.828125,0.40625 0.828125,0.90625 0,0.6875 -0.65625,1.1875 -1.578125,1.1875 -0.9375,0 -1.609375,-0.453125 -1.609375,-1.109375 v -0.53125 H 0.53125 c 0,0.90625 -0.03125,1.296875 -0.140625,1.8125 0.671875,0.21875 1.171875,0.3125 1.765625,0.3125 1.703125,0 2.90625,-0.90625 2.90625,-2.1875 z m 0,0"
             id="path103" />
        </g>
        <g
           id="use46"
           transform="translate(170.29216,11.822)">
          <path
             d="m 6.65625,-3.0625 c 0,-1.75 -1.265625,-3.015625 -3.046875,-3.015625 -1.890625,0 -3.1875,1.34375 -3.1875,3.265625 0,1.828125 1.140625,3.078125 2.8125,3.078125 2,0 3.421875,-1.390625 3.421875,-3.328125 z m -1.203125,0.46875 c 0,1.5 -0.65625,2.421875 -1.703125,2.421875 -1.28125,0 -2.125,-1.234375 -2.125,-3.078125 0,-1.5625 0.609375,-2.390625 1.75,-2.390625 1.203125,0 2.078125,1.28125 2.078125,3.046875 z m 0,0"
             id="path104" />
        </g>
        <g
           id="use47"
           transform="translate(177.36362,11.822)">
          <path
             d="m 5.34375,-0.59375 -0.125,-0.203125 c -0.484375,0.265625 -0.890625,0.375 -1.359375,0.375 -1.4375,0 -2.375,-1.109375 -2.375,-2.8125 0,-1.390625 0.640625,-2.171875 1.8125,-2.171875 0.5625,0 1.1875,0.265625 1.421875,0.59375 l 0.09375,0.78125 h 0.359375 c 0,-0.59375 0.0625,-1.125 0.171875,-1.59375 -0.515625,-0.3125 -0.96875,-0.453125 -1.5,-0.453125 -0.625,0 -1.34375,0.25 -2.125,0.734375 -0.90625,0.578125 -1.375,1.484375 -1.375,2.625 0,1.75 1.21875,2.984375 2.953125,2.984375 0.6875,0 1.65625,-0.25 1.78125,-0.453125 z m 0,0"
             id="path105" />
        </g>
        <g
           id="use48"
           transform="translate(183.11404,11.822)">
          <path
             d="m 3.515625,0.03125 v -0.375 L 2.921875,-0.390625 C 2.46875,-0.421875 2.4375,-0.5 2.4375,-1.328125 v -4.6875 l -0.125,-0.0625 C 1.65625,-5.796875 0.984375,-5.625 0.296875,-5.546875 V -5.1875 H 0.78125 c 0.515625,0 0.5625,0.09375 0.5625,0.953125 v 2.90625 c 0,0.828125 -0.03125,0.90625 -0.46875,0.9375 L 0.265625,-0.34375 v 0.375 C 0.8125,0.015625 1.34375,0 1.890625,0 2.4375,0 2.96875,0.015625 3.515625,0.03125 Z M 2.53125,-8.25 c 0,-0.375 -0.25,-0.65625 -0.625,-0.65625 C 1.5,-8.90625 1.25,-8.640625 1.25,-8.25 c 0,0.390625 0.25,0.640625 0.640625,0.640625 0.390625,0 0.640625,-0.25 0.640625,-0.640625 z m 0,0"
             id="path106" />
        </g>
        <g
           id="use49"
           transform="translate(186.8829,11.822)">
          <path
             d="m 6.09375,0.03125 v -0.375 l -0.5,-0.03125 C 5.28125,-0.390625 5.234375,-0.5 5.234375,-1.125 V -3.5 c 0,-1.890625 -0.546875,-2.578125 -2.046875,-2.578125 -0.5625,0 -1.078125,0.140625 -1.5625,0.4375 L 0.9375,-5.21875 V -4.375 L 1.265625,-4.28125 1.4375,-4.6875 c 0.265625,-0.609375 0.40625,-0.703125 1,-0.703125 1.21875,0 1.71875,0.484375 1.765625,1.65625 L 2.921875,-3.5 c -1.765625,0.328125 -2.5,0.9375 -2.5,2.0625 0,1.015625 0.59375,1.59375 1.625,1.59375 C 2.28125,0.15625 2.5,0.109375 2.59375,0.046875 L 4.203125,-1.0625 4.125,0.03125 C 4.46875,0.015625 4.8125,0 5.140625,0 5.46875,0 5.78125,0.015625 6.09375,0.03125 Z M 4.203125,-1.609375 C 3.828125,-1.078125 3,-0.578125 2.5,-0.578125 c -0.515625,0 -0.96875,-0.484375 -0.96875,-1.046875 0,-0.46875 0.25,-0.921875 0.640625,-1.171875 0.328125,-0.1875 1.046875,-0.375 2.03125,-0.515625 z m 0,0"
             id="path107" />
        </g>
        <g
           id="use50"
           transform="translate(193.3586,11.822)">
          <path
             d="M 4.125,-5.640625 2.359375,-5.5625 v -0.5 c 0,-0.546875 0.03125,-1.015625 0.140625,-1.84375 L 2.34375,-8.046875 c -0.3125,0.203125 -0.703125,0.359375 -1.09375,0.5 0.03125,0.390625 0.046875,0.625 0.046875,1.015625 V -5.625 L 0.28125,-5.171875 v 0.28125 l 0.984375,-0.0625 v 3.734375 c 0,0.953125 0.4375,1.375 1.421875,1.375 C 2.984375,0.15625 3.296875,0.09375 3.375,0 L 4,-0.6875 3.828125,-0.90625 c -0.3125,0.1875 -0.515625,0.25 -0.765625,0.25 -0.5,0 -0.703125,-0.265625 -0.703125,-0.890625 v -3.40625 h 1.65625 z m 0,0"
             id="path108" />
        </g>
        <g
           id="use51"
           transform="translate(197.58075,11.822)">
          <path
             d="m 5.796875,-3.609375 c 0,-1.5 -0.953125,-2.46875 -2.40625,-2.46875 -0.46875,0 -1.03125,0.171875 -1.5625,0.484375 -1.0625,0.609375 -1.484375,1.40625 -1.484375,2.75 0,0.828125 0.171875,1.515625 0.53125,2.015625 0.515625,0.6875 1.390625,1.09375 2.359375,1.09375 0.484375,0 0.96875,-0.109375 1.5,-0.34375 0.34375,-0.140625 0.609375,-0.3125 0.671875,-0.390625 l 0.25,-0.4375 -0.171875,-0.125 c -0.828125,0.484375 -1.125,0.609375 -1.671875,0.609375 -0.84375,0 -1.546875,-0.375 -1.90625,-1.015625 -0.25,-0.421875 -0.34375,-0.796875 -0.359375,-1.546875 H 3.4375 c 0.890625,0 1.453125,-0.03125 2.34375,-0.171875 0.015625,-0.1875 0.015625,-0.296875 0.015625,-0.453125 z m -1.140625,0.15625 -1.453125,0.03125 c -0.59375,0 -0.9375,-0.015625 -1.640625,-0.078125 0,-0.609375 0.0625,-0.890625 0.21875,-1.234375 0.28125,-0.5625 0.828125,-0.90625 1.453125,-0.90625 0.4375,0 0.765625,0.15625 1,0.515625 0.28125,0.421875 0.421875,0.796875 0.421875,1.671875 z m 0,0"
             id="path109" />
        </g>
      </g>
      <g
         fill="#000000"
         fill-opacity="1"
         id="g52"
         transform="matrix(0.47037,0,0,0.47037,-1.06974,-0.959908)">
        <g
           id="use52"
           transform="translate(207.02232,11.822)">
          <path
             d="m 6.09375,0.03125 v -0.375 l -0.5,-0.03125 C 5.28125,-0.390625 5.234375,-0.5 5.234375,-1.125 V -3.5 c 0,-1.890625 -0.546875,-2.578125 -2.046875,-2.578125 -0.5625,0 -1.078125,0.140625 -1.5625,0.4375 L 0.9375,-5.21875 V -4.375 L 1.265625,-4.28125 1.4375,-4.6875 c 0.265625,-0.609375 0.40625,-0.703125 1,-0.703125 1.21875,0 1.71875,0.484375 1.765625,1.65625 L 2.921875,-3.5 c -1.765625,0.328125 -2.5,0.9375 -2.5,2.0625 0,1.015625 0.59375,1.59375 1.625,1.59375 C 2.28125,0.15625 2.5,0.109375 2.59375,0.046875 L 4.203125,-1.0625 4.125,0.03125 C 4.46875,0.015625 4.8125,0 5.140625,0 5.46875,0 5.78125,0.015625 6.09375,0.03125 Z M 4.203125,-1.609375 C 3.828125,-1.078125 3,-0.578125 2.5,-0.578125 c -0.515625,0 -0.96875,-0.484375 -0.96875,-1.046875 0,-0.46875 0.25,-0.921875 0.640625,-1.171875 0.328125,-0.1875 1.046875,-0.375 2.03125,-0.515625 z m 0,0"
             id="path110" />
        </g>
      </g>
      <g
         fill="#000000"
         fill-opacity="1"
         id="g56"
         transform="matrix(0.47037,0,0,0.47037,-1.06974,-0.959908)">
        <g
           id="use53"
           transform="translate(216.73587,11.822)">
          <path
             d="m 3.515625,0.03125 v -0.375 L 2.921875,-0.390625 C 2.46875,-0.421875 2.4375,-0.5 2.4375,-1.328125 v -7.96875 L 2.3125,-9.40625 C 1.75,-9.1875 1.328125,-9.078125 0.296875,-8.921875 V -8.5625 h 0.71875 c 0.234375,0 0.328125,0.140625 0.328125,0.53125 v 6.703125 c 0,0.828125 -0.03125,0.90625 -0.46875,0.9375 L 0.265625,-0.34375 v 0.375 C 0.8125,0.015625 1.34375,0 1.890625,0 2.4375,0 2.96875,0.015625 3.515625,0.03125 Z m 0,0"
             id="path111" />
        </g>
        <g
           id="use54"
           transform="translate(220.50473,11.822)">
          <path
             d="m 3.515625,0.03125 v -0.375 L 2.921875,-0.390625 C 2.46875,-0.421875 2.4375,-0.5 2.4375,-1.328125 v -4.6875 l -0.125,-0.0625 C 1.65625,-5.796875 0.984375,-5.625 0.296875,-5.546875 V -5.1875 H 0.78125 c 0.515625,0 0.5625,0.09375 0.5625,0.953125 v 2.90625 c 0,0.828125 -0.03125,0.90625 -0.46875,0.9375 L 0.265625,-0.34375 v 0.375 C 0.8125,0.015625 1.34375,0 1.890625,0 2.4375,0 2.96875,0.015625 3.515625,0.03125 Z M 2.53125,-8.25 c 0,-0.375 -0.25,-0.65625 -0.625,-0.65625 C 1.5,-8.90625 1.25,-8.640625 1.25,-8.25 c 0,0.390625 0.25,0.640625 0.640625,0.640625 0.390625,0 0.640625,-0.25 0.640625,-0.640625 z m 0,0"
             id="path112" />
        </g>
        <g
           id="use55"
           transform="translate(224.27359,11.822)">
          <path
             d="m 7.40625,0.03125 v -0.375 L 6.875,-0.390625 C 6.4375,-0.421875 6.40625,-0.5 6.40625,-1.328125 v -2.5 c 0,-1.515625 -0.71875,-2.25 -2.171875,-2.25 -0.484375,0 -0.75,0.09375 -1.015625,0.328125 l -0.984375,0.859375 v -1.125 l -0.125,-0.0625 C 1.453125,-5.796875 0.78125,-5.625 0.09375,-5.546875 V -5.1875 H 0.5625 c 0.53125,0 0.578125,0.09375 0.578125,0.953125 v 2.90625 c 0,0.828125 -0.046875,0.90625 -0.484375,0.9375 L 0.078125,-0.34375 v 0.375 C 0.609375,0.015625 1.15625,0 1.6875,0 2.21875,0 2.765625,0.015625 3.296875,0.03125 v -0.375 L 2.703125,-0.390625 C 2.265625,-0.421875 2.234375,-0.5 2.234375,-1.328125 V -4.0625 c 0,-0.59375 0.84375,-1.21875 1.640625,-1.21875 0.859375,0 1.4375,0.640625 1.4375,1.640625 V 0.03125 C 5.640625,0.015625 6,0 6.328125,0 c 0.375,0 0.71875,0.015625 1.078125,0.03125 z m 0,0"
             id="path113" />
        </g>
        <g
           id="use56"
           transform="translate(231.81131,11.822)">
          <path
             d="m 5.796875,-3.609375 c 0,-1.5 -0.953125,-2.46875 -2.40625,-2.46875 -0.46875,0 -1.03125,0.171875 -1.5625,0.484375 -1.0625,0.609375 -1.484375,1.40625 -1.484375,2.75 0,0.828125 0.171875,1.515625 0.53125,2.015625 0.515625,0.6875 1.390625,1.09375 2.359375,1.09375 0.484375,0 0.96875,-0.109375 1.5,-0.34375 0.34375,-0.140625 0.609375,-0.3125 0.671875,-0.390625 l 0.25,-0.4375 -0.171875,-0.125 c -0.828125,0.484375 -1.125,0.609375 -1.671875,0.609375 -0.84375,0 -1.546875,-0.375 -1.90625,-1.015625 -0.25,-0.421875 -0.34375,-0.796875 -0.359375,-1.546875 H 3.4375 c 0.890625,0 1.453125,-0.03125 2.34375,-0.171875 0.015625,-0.1875 0.015625,-0.296875 0.015625,-0.453125 z m -1.140625,0.15625 -1.453125,0.03125 c -0.59375,0 -0.9375,-0.015625 -1.640625,-0.078125 0,-0.609375 0.0625,-0.890625 0.21875,-1.234375 0.28125,-0.5625 0.828125,-0.90625 1.453125,-0.90625 0.4375,0 0.765625,0.15625 1,0.515625 0.28125,0.421875 0.421875,0.796875 0.421875,1.671875 z m 0,0"
             id="path114" />
        </g>
      </g>
      <g
         fill="#000000"
         fill-opacity="1"
         id="g57"
         transform="matrix(0.47037,0,0,0.47037,-1.06974,-0.959908)">
        <g
           id="use57"
           transform="translate(241.25287,11.822)">
          <path
             d="M 4.125,-5.640625 2.359375,-5.5625 v -0.5 c 0,-0.546875 0.03125,-1.015625 0.140625,-1.84375 L 2.34375,-8.046875 c -0.3125,0.203125 -0.703125,0.359375 -1.09375,0.5 0.03125,0.390625 0.046875,0.625 0.046875,1.015625 V -5.625 L 0.28125,-5.171875 v 0.28125 l 0.984375,-0.0625 v 3.734375 c 0,0.953125 0.4375,1.375 1.421875,1.375 C 2.984375,0.15625 3.296875,0.09375 3.375,0 L 4,-0.6875 3.828125,-0.90625 c -0.3125,0.1875 -0.515625,0.25 -0.765625,0.25 -0.5,0 -0.703125,-0.265625 -0.703125,-0.890625 v -3.40625 h 1.65625 z m 0,0"
             id="path115" />
        </g>
      </g>
      <g
         fill="#000000"
         fill-opacity="1"
         id="g63"
         transform="matrix(0.47037,0,0,0.47037,-1.06974,-0.959908)">
        <g
           id="use58"
           transform="translate(245.66931,11.822)">
          <path
             d="m 7.40625,0.03125 v -0.375 L 6.875,-0.390625 C 6.4375,-0.421875 6.40625,-0.5 6.40625,-1.328125 v -2.5 c 0,-1.515625 -0.71875,-2.25 -2.171875,-2.25 -0.484375,0 -0.75,0.09375 -1.015625,0.328125 l -0.984375,0.859375 v -4.40625 l -0.125,-0.109375 c -0.5625,0.21875 -1,0.328125 -2.015625,0.484375 V -8.5625 H 0.8125 c 0.234375,0 0.328125,0.140625 0.328125,0.53125 v 6.703125 c 0,0.828125 -0.046875,0.90625 -0.484375,0.9375 L 0.078125,-0.34375 v 0.375 C 0.609375,0.015625 1.15625,0 1.6875,0 2.21875,0 2.765625,0.015625 3.296875,0.03125 v -0.375 L 2.703125,-0.390625 C 2.265625,-0.421875 2.234375,-0.5 2.234375,-1.328125 V -4.0625 c 0,-0.59375 0.84375,-1.21875 1.640625,-1.21875 0.859375,0 1.4375,0.640625 1.4375,1.640625 V 0.03125 C 5.640625,0.015625 6,0 6.328125,0 c 0.375,0 0.71875,0.015625 1.078125,0.03125 z m 0,0"
             id="path116" />
        </g>
        <g
           id="use59"
           transform="translate(253.20702,11.822)">
          <path
             d="M 4.84375,-5.9375 C 4.703125,-6.015625 4.46875,-6.078125 4.234375,-6.078125 3.84375,-6.078125 3.4375,-5.875 3.15625,-5.546875 L 2.4375,-4.6875 v -1.328125 l -0.125,-0.0625 C 1.65625,-5.796875 0.984375,-5.625 0.296875,-5.546875 V -5.1875 H 0.78125 c 0.515625,0 0.5625,0.09375 0.5625,0.953125 v 2.90625 c 0,0.828125 -0.03125,0.90625 -0.46875,0.9375 L 0.265625,-0.34375 v 0.375 C 0.796875,0.015625 1.328125,0 1.859375,0 2.484375,0 3.09375,0.015625 3.71875,0.03125 v -0.375 L 3.046875,-0.390625 C 2.46875,-0.421875 2.4375,-0.46875 2.4375,-1.328125 v -2.21875 c 0,-0.78125 0.515625,-1.421875 1.15625,-1.421875 0.390625,0 0.65625,0.171875 0.859375,0.59375 h 0.28125 z m 0,0"
             id="path117" />
        </g>
        <g
           id="use60"
           transform="translate(258.32281,11.822)">
          <path
             d="m 6.65625,-3.0625 c 0,-1.75 -1.265625,-3.015625 -3.046875,-3.015625 -1.890625,0 -3.1875,1.34375 -3.1875,3.265625 0,1.828125 1.140625,3.078125 2.8125,3.078125 2,0 3.421875,-1.390625 3.421875,-3.328125 z m -1.203125,0.46875 c 0,1.5 -0.65625,2.421875 -1.703125,2.421875 -1.28125,0 -2.125,-1.234375 -2.125,-3.078125 0,-1.5625 0.609375,-2.390625 1.75,-2.390625 1.203125,0 2.078125,1.28125 2.078125,3.046875 z m 0,0"
             id="path118" />
        </g>
        <g
           id="use61"
           transform="translate(265.39429,11.822)">
          <path
             d="m 7.53125,0.03125 v -0.375 L 7,-0.390625 C 6.546875,-0.421875 6.515625,-0.5 6.515625,-1.328125 v -4.6875 L 6.40625,-6.078125 C 5.734375,-5.796875 5.0625,-5.625 4.375,-5.546875 V -5.1875 h 0.484375 c 0.515625,0 0.5625,0.09375 0.5625,0.953125 V -2.125 c 0,0.28125 -0.171875,0.640625 -0.46875,0.953125 -0.375,0.359375 -0.78125,0.53125 -1.28125,0.53125 -0.453125,0 -0.828125,-0.140625 -1.03125,-0.375 C 2.46875,-1.234375 2.375,-1.625 2.375,-2.203125 v -3.8125 L 2.25,-6.078125 C 1.59375,-5.796875 0.921875,-5.625 0.234375,-5.546875 V -5.1875 H 0.71875 c 0.515625,0 0.5625,0.09375 0.5625,0.953125 V -2.0625 c 0,0.90625 0.078125,1.3125 0.3125,1.640625 C 1.875,-0.03125 2.375,0.15625 3.109375,0.15625 c 0.578125,0 1.09375,-0.1875 1.453125,-0.5 l 0.859375,-0.8125 c 0,0.375 0,0.59375 -0.046875,1.1875 C 5.734375,0.015625 6.09375,0 6.453125,0 6.8125,0 7.15625,0.015625 7.53125,0.03125 Z m 0,0"
             id="path119" />
        </g>
        <g
           id="use62"
           transform="translate(273.20398,11.822)">
          <path
             d="M 7.046875,-5.421875 7,-5.578125 5.15625,-5.53125 C 4.671875,-5.921875 4.203125,-6.078125 3.578125,-6.078125 c -0.578125,0 -1.234375,0.1875 -1.765625,0.5 -0.71875,0.40625 -1.09375,1.046875 -1.09375,1.828125 0,0.96875 0.59375,1.625 1.546875,1.734375 L 1.25,-1.234375 c -0.140625,0.203125 -0.203125,0.359375 -0.203125,0.5625 0,0.359375 0.234375,0.5625 0.859375,0.75 L 0.78125,0.6875 c -0.1875,0.109375 -0.359375,0.578125 -0.359375,0.984375 0,1.171875 1.140625,2 2.796875,2 1.953125,0 3.484375,-1.234375 3.484375,-2.8125 0,-0.9375 -0.609375,-1.578125 -1.515625,-1.578125 H 3.109375 C 2.4375,-0.71875 2.125,-0.875 2.125,-1.234375 c 0,-0.171875 0.109375,-0.3125 0.4375,-0.59375 0.078125,-0.0625 0.109375,-0.09375 0.15625,-0.140625 0.125,0.015625 0.203125,0.03125 0.3125,0.03125 0.5625,0 1.25,-0.25 1.78125,-0.625 0.578125,-0.421875 0.859375,-0.953125 0.859375,-1.640625 0,-0.25 -0.03125,-0.421875 -0.140625,-0.6875 h 1.1875 z M 4.578125,-3.8125 c 0,0.84375 -0.53125,1.421875 -1.328125,1.421875 -0.859375,0 -1.453125,-0.671875 -1.453125,-1.65625 0,-1 0.484375,-1.59375 1.3125,-1.59375 0.875,0 1.46875,0.734375 1.46875,1.828125 z M 5.6875,1.328125 c 0,1.109375 -1.03125,1.9375 -2.390625,1.9375 -1.125,0 -1.890625,-0.65625 -1.890625,-1.625 0,-0.578125 0.328125,-1.09375 0.84375,-1.328125 0.21875,-0.09375 0.578125,-0.125 1.46875,-0.125 1.46875,0 1.96875,0.296875 1.96875,1.140625 z m 0,0"
             id="path120" />
        </g>
        <g
           id="use63"
           transform="translate(280.40497,11.822)">
          <path
             d="m 7.40625,0.03125 v -0.375 L 6.875,-0.390625 C 6.4375,-0.421875 6.40625,-0.5 6.40625,-1.328125 v -2.5 c 0,-1.515625 -0.71875,-2.25 -2.171875,-2.25 -0.484375,0 -0.75,0.09375 -1.015625,0.328125 l -0.984375,0.859375 v -4.40625 l -0.125,-0.109375 c -0.5625,0.21875 -1,0.328125 -2.015625,0.484375 V -8.5625 H 0.8125 c 0.234375,0 0.328125,0.140625 0.328125,0.53125 v 6.703125 c 0,0.828125 -0.046875,0.90625 -0.484375,0.9375 L 0.078125,-0.34375 v 0.375 C 0.609375,0.015625 1.15625,0 1.6875,0 2.21875,0 2.765625,0.015625 3.296875,0.03125 v -0.375 L 2.703125,-0.390625 C 2.265625,-0.421875 2.234375,-0.5 2.234375,-1.328125 V -4.0625 c 0,-0.59375 0.84375,-1.21875 1.640625,-1.21875 0.859375,0 1.4375,0.640625 1.4375,1.640625 V 0.03125 C 5.640625,0.015625 6,0 6.328125,0 c 0.375,0 0.71875,0.015625 1.078125,0.03125 z m 0,0"
             id="path121" />
        </g>
      </g>
      <g
         fill="#000000"
         fill-opacity="1"
         id="g64"
         transform="matrix(0.47037,0,0,0.47037,-1.06974,-0.959908)">
        <g
           id="use64"
           transform="translate(291.181,11.822)">
          <path
             d="M 3.9375,-9.78125 C 1.96875,-8.5 0.78125,-6.28125 0.78125,-3.5 c 0,2.546875 1.21875,4.96875 3.125,6.265625 L 4.0625,2.53125 C 2.265625,0.984375 1.953125,-0.53125 1.953125,-3.546875 1.953125,-6.5625 2.3125,-8.140625 4.0625,-9.5625 Z m 0,0"
             id="path122" />
        </g>
      </g>
      <g
         fill="#000000"
         fill-opacity="1"
         id="g66"
         transform="matrix(0.47037,0,0,0.47037,-1.06974,-0.959908)">
        <g
           id="use65"
           transform="translate(295.66199,11.822)">
          <path
             d="m 6.015625,-4.734375 c 0,-2.84375 -0.828125,-4.1875 -2.609375,-4.1875 -2,0 -3.03125,1.59375 -3.03125,4.71875 0,1.515625 0.265625,2.828125 0.71875,3.46875 0.453125,0.625 1.1875,1 1.984375,1 1.953125,0 2.9375,-1.6875 2.9375,-5 z M 4.9375,-4.09375 c 0,2.765625 -0.5,3.90625 -1.6875,3.90625 -1.25,0 -1.78125,-1.3125 -1.78125,-4.46875 0,-2.734375 0.46875,-3.8125 1.703125,-3.8125 1.265625,0 1.765625,1.265625 1.765625,4.375 z m 0,0"
             id="path123" />
        </g>
        <g
           id="use66"
           transform="translate(302.1377,11.822)">
          <path
             d="m 2.828125,-1.40625 -0.1875,-0.1875 C 2.296875,-1.484375 2.0625,-1.40625 1.375,-1.203125 1.28125,-0.21875 0.953125,0.625 0.203125,1.859375 L 0.390625,2 0.921875,1.765625 C 1.96875,0.40625 2.46875,-0.421875 2.828125,-1.40625 Z m 0,0"
             id="path124" />
        </g>
      </g>
      <g
         fill="#000000"
         fill-opacity="1"
         id="g67"
         transform="matrix(0.47037,0,0,0.47037,-1.06974,-0.959908)">
        <g
           id="use67"
           transform="translate(307.53842,11.822)">
          <path
             d="m 6.015625,-4.734375 c 0,-2.84375 -0.828125,-4.1875 -2.609375,-4.1875 -2,0 -3.03125,1.59375 -3.03125,4.71875 0,1.515625 0.265625,2.828125 0.71875,3.46875 0.453125,0.625 1.1875,1 1.984375,1 1.953125,0 2.9375,-1.6875 2.9375,-5 z M 4.9375,-4.09375 c 0,2.765625 -0.5,3.90625 -1.6875,3.90625 -1.25,0 -1.78125,-1.3125 -1.78125,-4.46875 0,-2.734375 0.46875,-3.8125 1.703125,-3.8125 1.265625,0 1.765625,1.265625 1.765625,4.375 z m 0,0"
             id="path125" />
        </g>
      </g>
      <g
         fill="#000000"
         fill-opacity="1"
         id="g68"
         transform="matrix(0.47037,0,0,0.47037,-1.06974,-0.959908)">
        <g
           id="use68"
           transform="translate(314.01001,11.822)">
          <path
             d="m 0.546875,-9.78125 -0.125,0.21875 c 1.75,1.421875 2.109375,3 2.109375,6.015625 0,3.015625 -0.3125,4.53125 -2.109375,6.078125 l 0.15625,0.234375 c 1.890625,-1.296875 3.125,-3.71875 3.125,-6.265625 0,-2.78125 -1.1875,-5 -3.15625,-6.28125 z m 0,0"
             id="path126" />
        </g>
      </g>
      <g
         fill="#000000"
         fill-opacity="1"
         id="g71"
         transform="matrix(0.47037,0,0,0.47037,-1.06974,-0.959908)">
        <g
           id="use69"
           transform="translate(321.729,11.822)">
          <path
             d="m 6.09375,0.03125 v -0.375 l -0.5,-0.03125 C 5.28125,-0.390625 5.234375,-0.5 5.234375,-1.125 V -3.5 c 0,-1.890625 -0.546875,-2.578125 -2.046875,-2.578125 -0.5625,0 -1.078125,0.140625 -1.5625,0.4375 L 0.9375,-5.21875 V -4.375 L 1.265625,-4.28125 1.4375,-4.6875 c 0.265625,-0.609375 0.40625,-0.703125 1,-0.703125 1.21875,0 1.71875,0.484375 1.765625,1.65625 L 2.921875,-3.5 c -1.765625,0.328125 -2.5,0.9375 -2.5,2.0625 0,1.015625 0.59375,1.59375 1.625,1.59375 C 2.28125,0.15625 2.5,0.109375 2.59375,0.046875 L 4.203125,-1.0625 4.125,0.03125 C 4.46875,0.015625 4.8125,0 5.140625,0 5.46875,0 5.78125,0.015625 6.09375,0.03125 Z M 4.203125,-1.609375 C 3.828125,-1.078125 3,-0.578125 2.5,-0.578125 c -0.515625,0 -0.96875,-0.484375 -0.96875,-1.046875 0,-0.46875 0.25,-0.921875 0.640625,-1.171875 0.328125,-0.1875 1.046875,-0.375 2.03125,-0.515625 z m 0,0"
             id="path127" />
        </g>
        <g
           id="use70"
           transform="translate(328.20471,11.822)">
          <path
             d="m 7.40625,0.03125 v -0.375 L 6.875,-0.390625 C 6.4375,-0.421875 6.40625,-0.5 6.40625,-1.328125 v -2.5 c 0,-1.515625 -0.71875,-2.25 -2.171875,-2.25 -0.484375,0 -0.75,0.09375 -1.015625,0.328125 l -0.984375,0.859375 v -1.125 l -0.125,-0.0625 C 1.453125,-5.796875 0.78125,-5.625 0.09375,-5.546875 V -5.1875 H 0.5625 c 0.53125,0 0.578125,0.09375 0.578125,0.953125 v 2.90625 c 0,0.828125 -0.046875,0.90625 -0.484375,0.9375 L 0.078125,-0.34375 v 0.375 C 0.609375,0.015625 1.15625,0 1.6875,0 2.21875,0 2.765625,0.015625 3.296875,0.03125 v -0.375 L 2.703125,-0.390625 C 2.265625,-0.421875 2.234375,-0.5 2.234375,-1.328125 V -4.0625 c 0,-0.59375 0.84375,-1.21875 1.640625,-1.21875 0.859375,0 1.4375,0.640625 1.4375,1.640625 V 0.03125 C 5.640625,0.015625 6,0 6.328125,0 c 0.375,0 0.71875,0.015625 1.078125,0.03125 z m 0,0"
             id="path128" />
        </g>
        <g
           id="use71"
           transform="translate(335.7424,11.822)">
          <path
             d="m 7.5,0.03125 v -0.375 L 6.90625,-0.390625 C 6.46875,-0.421875 6.421875,-0.5 6.421875,-1.328125 v -7.96875 L 6.3125,-9.40625 c -0.578125,0.21875 -1,0.328125 -2.03125,0.484375 V -8.5625 h 0.734375 c 0.234375,0 0.328125,0.140625 0.328125,0.53125 v 2.375 C 4.609375,-5.96875 4.25,-6.078125 3.796875,-6.078125 c -0.34375,0 -0.65625,0.078125 -0.984375,0.25 l -1.140625,0.59375 c -0.734375,0.390625 -1.21875,1.328125 -1.21875,2.4375 0,1.03125 0.34375,1.890625 0.984375,2.40625 0.4375,0.375 1.046875,0.546875 1.890625,0.546875 0.265625,0 0.5625,-0.046875 0.625,-0.109375 l 1.4375,-1.203125 -0.0625,1.1875 C 5.65625,0.015625 5.984375,0 6.328125,0 6.703125,0 7.109375,0.015625 7.5,0.03125 Z M 5.34375,-2.859375 c 0,0.84375 -0.03125,0.96875 -0.203125,1.265625 -0.359375,0.609375 -1,1.015625 -1.609375,1.015625 -1.140625,0 -1.953125,-1.109375 -1.953125,-2.640625 0,-1.421875 0.703125,-2.25 1.875,-2.25 0.484375,0 1,0.171875 1.453125,0.484375 0.28125,0.171875 0.4375,0.34375 0.4375,0.453125 z m 0,0"
             id="path129" />
        </g>
      </g>
      <g
         fill="#000000"
         fill-opacity="1"
         id="g72"
         transform="matrix(0.47037,0,0,0.47037,-1.06974,-0.959908)">
        <g
           id="use72"
           transform="translate(346.89359,11.822)">
          <path
             d="M 4.125,-5.640625 2.359375,-5.5625 v -0.5 c 0,-0.546875 0.03125,-1.015625 0.140625,-1.84375 L 2.34375,-8.046875 c -0.3125,0.203125 -0.703125,0.359375 -1.09375,0.5 0.03125,0.390625 0.046875,0.625 0.046875,1.015625 V -5.625 L 0.28125,-5.171875 v 0.28125 l 0.984375,-0.0625 v 3.734375 c 0,0.953125 0.4375,1.375 1.421875,1.375 C 2.984375,0.15625 3.296875,0.09375 3.375,0 L 4,-0.6875 3.828125,-0.90625 c -0.3125,0.1875 -0.515625,0.25 -0.765625,0.25 -0.5,0 -0.703125,-0.265625 -0.703125,-0.890625 v -3.40625 h 1.65625 z m 0,0"
             id="path130" />
        </g>
      </g>
      <g
         fill="#000000"
         fill-opacity="1"
         id="g75"
         transform="matrix(0.47037,0,0,0.47037,-1.06974,-0.959908)">
        <g
           id="use73"
           transform="translate(351.31,11.822)">
          <path
             d="m 7.40625,0.03125 v -0.375 L 6.875,-0.390625 C 6.4375,-0.421875 6.40625,-0.5 6.40625,-1.328125 v -2.5 c 0,-1.515625 -0.71875,-2.25 -2.171875,-2.25 -0.484375,0 -0.75,0.09375 -1.015625,0.328125 l -0.984375,0.859375 v -4.40625 l -0.125,-0.109375 c -0.5625,0.21875 -1,0.328125 -2.015625,0.484375 V -8.5625 H 0.8125 c 0.234375,0 0.328125,0.140625 0.328125,0.53125 v 6.703125 c 0,0.828125 -0.046875,0.90625 -0.484375,0.9375 L 0.078125,-0.34375 v 0.375 C 0.609375,0.015625 1.15625,0 1.6875,0 2.21875,0 2.765625,0.015625 3.296875,0.03125 v -0.375 L 2.703125,-0.390625 C 2.265625,-0.421875 2.234375,-0.5 2.234375,-1.328125 V -4.0625 c 0,-0.59375 0.84375,-1.21875 1.640625,-1.21875 0.859375,0 1.4375,0.640625 1.4375,1.640625 V 0.03125 C 5.640625,0.015625 6,0 6.328125,0 c 0.375,0 0.71875,0.015625 1.078125,0.03125 z m 0,0"
             id="path131" />
        </g>
        <g
           id="use74"
           transform="translate(358.84772,11.822)">
          <path
             d="m 6.09375,0.03125 v -0.375 l -0.5,-0.03125 C 5.28125,-0.390625 5.234375,-0.5 5.234375,-1.125 V -3.5 c 0,-1.890625 -0.546875,-2.578125 -2.046875,-2.578125 -0.5625,0 -1.078125,0.140625 -1.5625,0.4375 L 0.9375,-5.21875 V -4.375 L 1.265625,-4.28125 1.4375,-4.6875 c 0.265625,-0.609375 0.40625,-0.703125 1,-0.703125 1.21875,0 1.71875,0.484375 1.765625,1.65625 L 2.921875,-3.5 c -1.765625,0.328125 -2.5,0.9375 -2.5,2.0625 0,1.015625 0.59375,1.59375 1.625,1.59375 C 2.28125,0.15625 2.5,0.109375 2.59375,0.046875 L 4.203125,-1.0625 4.125,0.03125 C 4.46875,0.015625 4.8125,0 5.140625,0 5.46875,0 5.78125,0.015625 6.09375,0.03125 Z M 4.203125,-1.609375 C 3.828125,-1.078125 3,-0.578125 2.5,-0.578125 c -0.515625,0 -0.96875,-0.484375 -0.96875,-1.046875 0,-0.46875 0.25,-0.921875 0.640625,-1.171875 0.328125,-0.1875 1.046875,-0.375 2.03125,-0.515625 z m 0,0"
             id="path132" />
        </g>
        <g
           id="use75"
           transform="translate(365.32343,11.822)">
          <path
             d="M 4.125,-5.640625 2.359375,-5.5625 v -0.5 c 0,-0.546875 0.03125,-1.015625 0.140625,-1.84375 L 2.34375,-8.046875 c -0.3125,0.203125 -0.703125,0.359375 -1.09375,0.5 0.03125,0.390625 0.046875,0.625 0.046875,1.015625 V -5.625 L 0.28125,-5.171875 v 0.28125 l 0.984375,-0.0625 v 3.734375 c 0,0.953125 0.4375,1.375 1.421875,1.375 C 2.984375,0.15625 3.296875,0.09375 3.375,0 L 4,-0.6875 3.828125,-0.90625 c -0.3125,0.1875 -0.515625,0.25 -0.765625,0.25 -0.5,0 -0.703125,-0.265625 -0.703125,-0.890625 v -3.40625 h 1.65625 z m 0,0"
             id="path133" />
        </g>
      </g>
      <g
         fill="#000000"
         fill-opacity="1"
         id="g80"
         transform="matrix(0.47037,0,0,0.47037,-1.06974,-0.959908)">
        <g
           id="use76"
           transform="translate(372.78342,11.822)">
          <path
             d="m 7.171875,-3.515625 c 0,-1.4375 -1.1875,-2.5625 -2.6875,-2.5625 -0.484375,0 -0.953125,0.125 -1.15625,0.328125 l -1.0625,0.96875 V -6.015625 L 2.15625,-6.078125 C 1.484375,-5.796875 0.8125,-5.625 0.125,-5.546875 V -5.1875 h 0.484375 c 0.515625,0 0.5625,0.09375 0.5625,0.953125 V 2.28125 c 0,0.8125 -0.03125,0.90625 -0.46875,0.9375 L 0.109375,3.25 v 0.390625 c 0.53125,-0.03125 1.0625,-0.046875 1.609375,-0.046875 0.546875,0 1.078125,0.015625 1.625,0.046875 V 3.25 L 2.75,3.21875 C 2.3125,3.1875 2.265625,3.09375 2.265625,2.28125 V -0.171875 C 2.65625,0.0625 3.0625,0.15625 3.65625,0.15625 c 0.375,0 0.703125,-0.078125 0.921875,-0.203125 l 1.46875,-0.96875 c 0.515625,-0.328125 1.125,-1.671875 1.125,-2.5 z m -1.125,0.484375 c 0,1.453125 -0.859375,2.53125 -2.03125,2.53125 -0.71875,0 -1.25,-0.234375 -1.75,-0.765625 V -3.96875 c 0,-0.171875 0.0625,-0.3125 0.234375,-0.53125 0.375,-0.484375 0.90625,-0.734375 1.546875,-0.734375 1.21875,0 2,0.859375 2,2.203125 z m 0,0"
             id="path134" />
        </g>
        <g
           id="use77"
           transform="translate(380.5672,11.822)">
          <path
             d="m 6.65625,-3.0625 c 0,-1.75 -1.265625,-3.015625 -3.046875,-3.015625 -1.890625,0 -3.1875,1.34375 -3.1875,3.265625 0,1.828125 1.140625,3.078125 2.8125,3.078125 2,0 3.421875,-1.390625 3.421875,-3.328125 z m -1.203125,0.46875 c 0,1.5 -0.65625,2.421875 -1.703125,2.421875 -1.28125,0 -2.125,-1.234375 -2.125,-3.078125 0,-1.5625 0.609375,-2.390625 1.75,-2.390625 1.203125,0 2.078125,1.28125 2.078125,3.046875 z m 0,0"
             id="path135" />
        </g>
        <g
           id="use78"
           transform="translate(387.63867,11.822)">
          <path
             d="m 3.515625,0.03125 v -0.375 L 2.921875,-0.390625 C 2.46875,-0.421875 2.4375,-0.5 2.4375,-1.328125 v -4.6875 l -0.125,-0.0625 C 1.65625,-5.796875 0.984375,-5.625 0.296875,-5.546875 V -5.1875 H 0.78125 c 0.515625,0 0.5625,0.09375 0.5625,0.953125 v 2.90625 c 0,0.828125 -0.03125,0.90625 -0.46875,0.9375 L 0.265625,-0.34375 v 0.375 C 0.8125,0.015625 1.34375,0 1.890625,0 2.4375,0 2.96875,0.015625 3.515625,0.03125 Z M 2.53125,-8.25 c 0,-0.375 -0.25,-0.65625 -0.625,-0.65625 C 1.5,-8.90625 1.25,-8.640625 1.25,-8.25 c 0,0.390625 0.25,0.640625 0.640625,0.640625 0.390625,0 0.640625,-0.25 0.640625,-0.640625 z m 0,0"
             id="path136" />
        </g>
        <g
           id="use79"
           transform="translate(391.40753,11.822)">
          <path
             d="m 7.40625,0.03125 v -0.375 L 6.875,-0.390625 C 6.4375,-0.421875 6.40625,-0.5 6.40625,-1.328125 v -2.5 c 0,-1.515625 -0.71875,-2.25 -2.171875,-2.25 -0.484375,0 -0.75,0.09375 -1.015625,0.328125 l -0.984375,0.859375 v -1.125 l -0.125,-0.0625 C 1.453125,-5.796875 0.78125,-5.625 0.09375,-5.546875 V -5.1875 H 0.5625 c 0.53125,0 0.578125,0.09375 0.578125,0.953125 v 2.90625 c 0,0.828125 -0.046875,0.90625 -0.484375,0.9375 L 0.078125,-0.34375 v 0.375 C 0.609375,0.015625 1.15625,0 1.6875,0 2.21875,0 2.765625,0.015625 3.296875,0.03125 v -0.375 L 2.703125,-0.390625 C 2.265625,-0.421875 2.234375,-0.5 2.234375,-1.328125 V -4.0625 c 0,-0.59375 0.84375,-1.21875 1.640625,-1.21875 0.859375,0 1.4375,0.640625 1.4375,1.640625 V 0.03125 C 5.640625,0.015625 6,0 6.328125,0 c 0.375,0 0.71875,0.015625 1.078125,0.03125 z m 0,0"
             id="path137" />
        </g>
        <g
           id="use80"
           transform="translate(398.94525,11.822)">
          <path
             d="M 4.125,-5.640625 2.359375,-5.5625 v -0.5 c 0,-0.546875 0.03125,-1.015625 0.140625,-1.84375 L 2.34375,-8.046875 c -0.3125,0.203125 -0.703125,0.359375 -1.09375,0.5 0.03125,0.390625 0.046875,0.625 0.046875,1.015625 V -5.625 L 0.28125,-5.171875 v 0.28125 l 0.984375,-0.0625 v 3.734375 c 0,0.953125 0.4375,1.375 1.421875,1.375 C 2.984375,0.15625 3.296875,0.09375 3.375,0 L 4,-0.6875 3.828125,-0.90625 c -0.3125,0.1875 -0.515625,0.25 -0.765625,0.25 -0.5,0 -0.703125,-0.265625 -0.703125,-0.890625 v -3.40625 h 1.65625 z m 0,0"
             id="path138" />
        </g>
      </g>
    </g>
    <text
       xml:space="preserve"
       style="font-size:6.77333px;font-family:'Times New Roman';-inkscape-font-specification:'Times New Roman, Normal';fill:#000000;stroke:#000000;stroke-width:0.416"
       x="187.74628"
       y="230.56219"
       id="text1"><tspan
         sodipodi:role="line"
         id="tspan1"
         style="stroke-width:0.416"
         x="187.74628"
         y="230.56219">$x$</tspan><tspan
         sodipodi:role="line"
         style="stroke-width:0.416"
         x="187.74628"
         y="239.02885"
         id="tspan2" /></text>
    <text
       xml:space="preserve"
       style="font-size:6.77333px;font-family:'Times New Roman';-inkscape-font-specification:'Times New Roman, Normal';fill:#000000;stroke:#000000;stroke-width:0.416"
       x="92.808815"
       y="176.49467"
       id="text3"><tspan
         sodipodi:role="line"
         id="tspan3"
         style="stroke-width:0.416"
         x="92.808815"
         y="176.49467">$y$</tspan><tspan
         sodipodi:role="line"
         style="stroke-width:0.416"
         x="92.808815"
         y="184.96133"
         id="tspan4" /></text>
    <text
       xml:space="preserve"
       style="font-size:6.77333px;font-family:'Times New Roman';-inkscape-font-specification:'Times New Roman, Normal';fill:#000000;stroke:#000000;stroke-width:0.416"
       x="187.32056"
       y="203.31557"
       id="text5"><tspan
         sodipodi:role="line"
         id="tspan5"
         style="stroke-width:0.416"
         x="187.32056"
         y="203.31557">$\{(x, 1)\}$</tspan><tspan
         sodipodi:role="line"
         style="stroke-width:0.416"
         x="187.32056"
         y="211.78223"
         id="tspan6" /></text>
  </g>
</svg>
